<svg xmlns="http://www.w3.org/2000/svg" xmlns:xlink="http://www.w3.org/1999/xlink" id="Layer_1" x="0px" y="0px" viewBox="0 0 512 512" xml:space="preserve"><rect x="0" y="0" fill="#182709" width="512" height="512"></rect><g>	<path fill="#A0FE38" d="M19.9,220.32V40.28h55.24c9.21,0,16.16,2.1,20.87,6.29c4.71,4.19,7.86,10.06,9.46,17.59  c1.6,7.54,2.4,16.39,2.4,26.55c0,9.82-1.25,17.66-3.73,23.53c-2.49,5.87-7.18,9.92-14.07,12.17c5.66,1.16,9.63,3.97,11.92,8.44  c2.28,4.47,3.43,10.25,3.43,17.34v68.13h-35.5v-70.48c0-5.25-1.07-8.51-3.22-9.77c-2.15-1.26-5.61-1.89-10.38-1.89v82.14H19.9z   M56.52,106.97h8.7c4.98,0,7.47-5.42,7.47-16.27c0-7.02-0.55-11.63-1.64-13.81c-1.09-2.18-3.14-3.27-6.14-3.27h-8.39V106.97z"></path>	<path fill="#A0FE38" d="M119.74,220.32V40.28h72.02v34.78h-35.39v35.09h33.96v33.86h-33.96v41.23h37.75v35.09H119.74z"></path>	<path fill="#A0FE38" d="M205.98,220.32V40.28h47.57c9.96,0,17.85,2.22,23.68,6.65c5.83,4.43,10.01,10.74,12.53,18.93  c2.52,8.18,3.79,17.94,3.79,29.26c0,10.91-1.06,20.41-3.17,28.49c-2.11,8.08-5.88,14.34-11.3,18.77  c-5.42,4.43-13.11,6.65-23.07,6.65h-14.63v71.3H205.98z M241.37,116.69h2.05c6.68,0,10.77-1.87,12.28-5.63  c1.5-3.75,2.25-9.27,2.25-16.57c0-6.82-0.73-12.09-2.2-15.81c-1.47-3.72-4.93-5.57-10.38-5.57h-3.99V116.69z"></path>	<path fill="#A0FE38" d="M304.9,220.32V40.28h55.24c9.21,0,16.16,2.1,20.87,6.29c4.71,4.19,7.86,10.06,9.46,17.59  c1.6,7.54,2.4,16.39,2.4,26.55c0,9.82-1.24,17.66-3.73,23.53c-2.49,5.87-7.18,9.92-14.07,12.17c5.66,1.16,9.63,3.97,11.92,8.44  c2.28,4.47,3.43,10.25,3.43,17.34v68.13h-35.5v-70.48c0-5.25-1.07-8.51-3.22-9.77c-2.15-1.26-5.61-1.89-10.38-1.89v82.14H304.9z   M341.52,106.97h8.69c4.98,0,7.47-5.42,7.47-16.27c0-7.02-0.55-11.63-1.64-13.81c-1.09-2.18-3.14-3.27-6.14-3.27h-8.39V106.97z"></path>	<path fill="#A0FE38" d="M447.7,221.96c-14.39,0-25.39-4.35-32.99-13.04c-7.6-8.69-11.41-21.26-11.41-37.7V85.7  c0-15.41,3.77-27.11,11.3-35.09c7.53-7.98,18.57-11.97,33.09-11.97s25.56,3.99,33.09,11.97c7.53,7.98,11.3,19.68,11.3,35.09v85.52  c0,16.44-3.8,29-11.41,37.7C473.09,217.61,462.09,221.96,447.7,221.96z M448.01,188.81c5.46,0,8.18-5.28,8.18-15.86V85.08  c0-8.86-2.66-13.3-7.98-13.3c-6,0-9,4.54-9,13.61v87.77c0,5.59,0.68,9.6,2.05,12.02C442.62,187.6,444.87,188.81,448.01,188.81z"></path>	<path fill="#A0FE38" d="M19.9,471.72V291.68h49.51c12.96,0,22.71,3.6,29.26,10.79c6.55,7.19,9.82,17.71,9.82,31.56v84.29  c0,17.05-2.98,30.21-8.95,39.49c-5.97,9.28-16.42,13.91-31.35,13.91H19.9z M56.11,439.91h6.24c6.61,0,9.92-3.2,9.92-9.61v-92.89  c0-6-0.8-9.87-2.4-11.61c-1.6-1.74-4.86-2.61-9.77-2.61h-3.99V439.91z"></path>	<path fill="#A0FE38" d="M164.85,473.36c-15,0-26.05-4.21-33.14-12.63c-7.09-8.42-10.64-20.82-10.64-37.18V291.68h34.99v130.43  c0,3,0.17,5.88,0.51,8.65c0.34,2.76,1.13,5.03,2.35,6.8c1.23,1.77,3.2,2.66,5.93,2.66c2.8,0,4.81-0.87,6.04-2.61  c1.23-1.74,1.99-4,2.3-6.8c0.31-2.8,0.46-5.69,0.46-8.7V291.68h34.99v131.86c0,16.37-3.55,28.76-10.64,37.18  C190.9,469.15,179.86,473.36,164.85,473.36z"></path>	<path fill="#A0FE38" d="M217.74,471.72v-32.73l41.23-114.16h-37.24v-33.14h75.19v31.51l-41.94,115.39h40.2v33.15H217.74z"></path></g><g></g><g></g><g></g><g></g><g></g><g></g></svg>