<?xml version="1.0" encoding="UTF-8"?>
<svg id="Layer_1" xmlns="http://www.w3.org/2000/svg" version="1.1" viewBox="0 0 970.3 140.5">
  <!-- Generator: Adobe Illustrator 29.1.0, SVG Export Plug-In . SVG Version: 2.1.0 Build 142)  -->
  <defs>
    <style>
      .st0 {
        fill: #b6f40c;
        fill-rule: evenodd;
      }
    </style>
  </defs>
  <path class="st0" d="M969.2,48.9c-.7,2.5-1.8,4.7-3.2,6.3-1.4,1.7-3.1,3-5,3.8s-4.2,1.3-6.6,1.3-4.5-.4-6.5-1.3c-2-.8-3.7-2.1-5.1-3.8-1.4-1.7-2.5-3.8-3.3-6.3-.8-2.5-1.2-5.5-1.2-8.8v-8.3c0-3.4.4-6.3,1.1-8.8.8-2.5,1.8-4.6,3.3-6.4,1.4-1.7,3.1-3,5.1-3.8,2-.9,4.1-1.3,6.5-1.3s4.7.4,6.6,1.3c2,.9,3.7,2.1,5,3.8,1.4,1.7,2.4,3.8,3.2,6.4.7,2.5,1.1,5.5,1.1,8.8v8.3c0,3.3-.4,6.3-1.1,8.8ZM964.3,31.7c0-2.6-.2-4.9-.7-6.7-.4-1.9-1.1-3.4-1.9-4.6s-1.9-2.1-3.1-2.7-2.7-.9-4.3-.9-2.9.3-4.2.9c-1.2.6-2.3,1.5-3.2,2.7s-1.5,2.7-2,4.6-.7,4.1-.7,6.7v8.3c0,2.6.2,4.9.7,6.8.5,1.9,1.1,3.4,2,4.6s1.9,2.1,3.2,2.7,2.6.9,4.2.9,3.1-.3,4.3-.9c1.2-.6,2.3-1.5,3.1-2.7s1.5-2.8,1.9-4.6c.4-1.9.6-4.1.6-6.8v-8.3h0ZM923.4,47.2h-16l-3.7,12.4h-6.1l15.3-47.5h5.2l15.3,47.5h-6.1l-3.7-12.4ZM915.3,20.5l-6.5,21.6h13l-6.5-21.6h0ZM922.3,7.3c-.9.7-2,1-3.1,1s-1.7-.2-2.3-.5c-.6-.3-1.2-.7-1.6-1.1-.5-.4-1-.8-1.5-1.1-.5-.3-1.2-.5-1.9-.5s-1.4.3-1.9,1.1c-.5.7-.8,1.6-.8,2.6l-3.8-.2c0-1.6.3-3,.8-4.2.5-1.2,1.3-2.2,2.2-2.8.9-.7,2-1,3.1-1s1.4.2,2,.5c.6.3,1.1.7,1.7,1.1.5.4,1.1.8,1.7,1.1s1.2.5,1.9.5,1.4-.3,1.9-1.1.8-1.6.8-2.6l3.8.4c0,1.6-.3,3-.8,4.2-.5,1.2-1.3,2.1-2.2,2.8h0ZM868.7,46.1c.3,1.8.9,3.4,1.6,4.8s1.7,2.4,3,3.2c1.2.8,2.7,1.1,4.4,1.1s3.9-.4,5.2-1.1c1.3-1.6,2.2-1.9,2.9-3.4s1-3.6,1.2-6.1h6c-.2,3.3-.8,6.1-2,8.4-1.2,2.4-2.8,4.2-5.1,5.4-1.8,1-4,1.6-6.5,1.8l-.3,1.5c1,.2,2,.7,2.8,1.6.8.8,1.3,2.2,1.3,4.1s-.2,1.9-.5,2.8c-.3.8-.9,1.6-1.6,2.2-.7.6-1.6,1.1-2.6,1.4-1,.3-2.3.5-3.7.5l-.2-3.5c.8,0,1.5-.1,2.2-.3s1.1-.6,1.5-1c.4-.5.5-1.1.5-1.9s-.2-1.3-.4-1.7c-.3-.4-.8-.7-1.4-.9s-1.4-.3-2.5-.4l.9-4.2c-1.5-.2-2.9-.6-4.2-1.2-1.9-.9-3.5-2.3-4.9-4s-2.4-3.9-3.1-6.3-1.1-5.2-1.1-8.3v-8.8c0-3,.4-5.8,1.1-8.3.7-2.5,1.8-4.6,3.2-6.3,1.4-1.8,3.1-3.1,5.1-4,2-.9,4.2-1.4,6.8-1.4s5.7.6,7.8,1.8c2.1,1.2,3.8,3,5,5.4,1.2,2.4,1.8,5.2,1.9,8.7h-6c-.2-2.5-.5-4.5-1.2-6.1-.6-1.6-1.6-2.7-2.8-3.5s-2.8-1.1-4.8-1.1-3.2.4-4.5,1c-1.3.7-2.3,1.7-3.1,3-.8,1.3-1.4,2.9-1.8,4.7s-.6,3.9-.6,6.1v8.8c0,2.1.2,4,.5,5.8h0ZM847.3,47.2h-16l-3.7,12.4h-6.1l15.3-47.5h5.2l15.3,47.5h-6.1l-3.7-12.4h0ZM839.2,20.5l-6.5,21.6h13l-6.5-21.6h0ZM792.6,46.1c.3,1.8.9,3.4,1.6,4.8s1.7,2.4,3,3.2,2.7,1.1,4.4,1.1,3.9-.4,5.2-1.1c1.3-1.6,2.2-1.9,2.9-3.4s1-3.6,1.2-6.1h6c-.2,3.3-.8,6.1-2,8.4-1.2,2.4-2.8,4.2-5.1,5.4s-5,1.9-8.3,1.9-4.5-.5-6.4-1.4c-1.9-.9-3.5-2.3-4.9-4s-2.4-3.9-3.1-6.3-1.1-5.2-1.1-8.3v-8.8c0-3,.4-5.8,1.1-8.3.7-2.5,1.8-4.6,3.2-6.3s3.1-3.1,5.1-4c2-.9,4.2-1.4,6.8-1.4s5.7.6,7.8,1.8c2.1,1.2,3.8,3,5,5.4,1.2,2.4,1.8,5.2,1.9,8.7h-6c-.2-2.5-.5-4.5-1.2-6.1-.6-1.6-1.6-2.7-2.8-3.5s-2.8-1.1-4.8-1.1-3.2.4-4.5,1c-1.3.7-2.3,1.7-3.1,3s-1.4,2.9-1.8,4.7-.6,3.9-.6,6.1v8.9c0,2.1.2,4,.5,5.8h0ZM770.7,12.1h6v47.5h-6V12.1ZM735,23v36.7h-6V12.1h6l19.1,36.8V12.1h5.9v47.5h-6l-19-36.7h0ZM733.1,134.8h18.6v5.1h-24.7v-47.5h6v42.4ZM710.8,127.4h-16l-3.7,12.4h-6.1l15.3-47.5h5.2l15.3,47.5h-6.1l-3.7-12.4h0ZM702.7,100.7l-6.5,21.6h13l-6.5-21.6h0ZM712.4,58.8c-2.2,1-4.6,1.5-7.2,1.5s-5.2-.5-7.4-1.5c-2.2-1-4-2.5-5.2-4.7-1.3-2.2-1.9-5-1.9-8.6V12.1h6v33.5c0,2.5.3,4.4,1.1,5.8.7,1.4,1.7,2.4,3,2.9,1.3.6,2.8.8,4.5.8s3.3-.3,4.6-.8c1.3-.6,2.3-1.5,3-2.9.7-1.4,1.1-3.3,1.1-5.8V12.1h6v33.5c0,3.6-.7,6.4-2.1,8.6-1.4,2.2-3.2,3.7-5.4,4.7ZM675.2,41.1l.6-18.4-12.4,37h-4.6l-12.4-37,.6,18.5v18.5h-6V12.1h7.7l12.4,38.8,12.4-38.8h7.7v47.5h-6v-18.5h0ZM643.9,106.1h-6c0-1.8-.3-3.4-.9-4.8-.6-1.4-1.5-2.5-2.7-3.3s-2.8-1.2-4.7-1.2-3.2.3-4.3,1c-1.1.7-2,1.6-2.5,2.7-.5,1.2-.8,2.5-.8,3.9s.2,1.9.5,2.7c.3.8.9,1.6,1.6,2.3s1.6,1.3,2.7,1.9c1.1.6,2.4,1.2,3.9,1.7,2.3.8,4.3,1.6,6,2.6,1.7.9,3,2,4,3.2,1,1.2,1.8,2.5,2.3,3.9.5,1.5.7,3.1.7,5s-.3,3.7-1,5.3c-.6,1.6-1.6,2.9-2.8,4s-2.7,2-4.4,2.6c-1.7.6-3.7.9-5.8.9s-3.7-.3-5.5-.9c-1.8-.6-3.4-1.5-4.9-2.7s-2.6-2.7-3.5-4.5c-.9-1.8-1.3-3.9-1.3-6.2h6c0,1.6.2,3,.7,4.2.5,1.2,1.1,2.1,2,2.9s1.8,1.3,2.9,1.7c1.1.4,2.3.5,3.5.5s3.2-.3,4.4-.9,2.1-1.5,2.7-2.6.9-2.5.9-4-.1-2.1-.4-3c-.3-.9-.7-1.6-1.4-2.3-.7-.7-1.6-1.4-2.7-2-1.2-.6-2.7-1.3-4.5-1.9-2-.7-3.7-1.5-5.3-2.3s-2.9-1.8-4.1-2.9c-1.1-1.1-2-2.4-2.6-3.8-.6-1.4-.9-3.1-.9-4.9s.3-3.6,1-5.1,1.6-2.9,2.7-4.1c1.2-1.2,2.6-2.1,4.3-2.7,1.7-.7,3.5-1,5.6-1,3.1,0,5.7.7,7.8,2s3.7,3.1,4.8,5.3,1.6,4.5,1.6,7h0ZM627.4,55.2c-1.4,1.7-3.1,3-5,3.8s-4.2,1.3-6.6,1.3-4.5-.4-6.5-1.3c-2-.8-3.7-2.1-5.1-3.8-1.4-1.7-2.5-3.8-3.3-6.3-.8-2.5-1.2-5.5-1.2-8.8v-8.3c0-3.4.4-6.3,1.1-8.8.8-2.5,1.8-4.6,3.3-6.4,1.4-1.7,3.1-3,5.1-3.8,2-.9,4.1-1.3,6.5-1.3s4.7.4,6.6,1.3c2,.9,3.7,2.1,5,3.8,1.4,1.7,2.4,3.8,3.2,6.4.7,2.5,1.1,5.5,1.1,8.8v8.3c0,3.3-.4,6.3-1.1,8.8-.7,2.5-1.8,4.7-3.2,6.3ZM625.8,31.7c0-2.6-.2-4.9-.7-6.7-.4-1.9-1.1-3.4-1.9-4.6s-1.9-2.1-3.1-2.7-2.7-.9-4.3-.9-2.9.3-4.2.9c-1.2.6-2.3,1.5-3.2,2.7s-1.5,2.7-2,4.6c-.5,1.9-.7,4.1-.7,6.7v8.3c0,2.6.2,4.9.7,6.8.5,1.9,1.1,3.4,2,4.6s1.9,2.1,3.2,2.7,2.6.9,4.2.9,3.1-.3,4.3-.9c1.2-.6,2.3-1.5,3.1-2.7s1.5-2.8,1.9-4.6c.4-1.9.6-4.1.6-6.8v-8.3h0ZM578.5,139.9h-4.6l-14.8-47.5h6.5l10.8,38.4,10.9-38.4h6.5l-14.8,47.5h-.6ZM568.3,46.1c.3,1.8.9,3.4,1.6,4.8s1.7,2.4,3,3.2c1.2.8,2.7,1.1,4.4,1.1s3.9-.4,5.2-1.1c1.3-1.6,2.2-1.9,2.9-3.4s1-3.6,1.2-6.1h6c-.2,3.3-.8,6.1-2,8.4-1.2,2.4-2.8,4.2-5.1,5.4-2.2,1.3-5,1.9-8.3,1.9s-4.5-.5-6.4-1.4c-1.9-.9-3.5-2.3-4.9-4s-2.4-3.9-3.1-6.3-1.1-5.2-1.1-8.3v-8.8c0-3,.4-5.8,1.1-8.3.7-2.5,1.8-4.6,3.2-6.3,1.4-1.8,3.1-3.1,5.1-4,2-.9,4.2-1.4,6.8-1.4s5.7.6,7.8,1.8c2.1,1.2,3.8,3,5,5.4,1.2,2.4,1.8,5.2,1.9,8.7h-6c-.2-2.5-.5-4.5-1.2-6.1-.6-1.6-1.6-2.7-2.8-3.5s-2.8-1.1-4.8-1.1-3.2.4-4.5,1c-1.3.7-2.3,1.7-3.1,3-.8,1.3-1.4,2.9-1.8,4.7s-.6,3.9-.6,6.1v8.9c0,2.1.2,4,.5,5.8h0ZM540.2,116.1v23.5h-54.9v-23.2l29.2-80.9h-26.4V12h53.3v22.3l-29.7,81.8h28.5,0ZM447.8,140.8c-10.6,0-18.5-3-23.5-9-5-6-7.5-14.8-7.5-26.4V12h24.8v92.5c0,2.1.1,4.2.4,6.1s.8,3.6,1.7,4.8c.9,1.3,2.3,1.9,4.2,1.9s3.4-.6,4.3-1.8c.9-1.2,1.4-2.8,1.6-4.8s.3-4,.3-6.2V12h24.8v93.5c0,11.6-2.5,20.4-7.5,26.4-5,6-12.9,9-23.5,9h0ZM379.2,139.6h-34.2V12h35.1c9.2,0,16.1,2.6,20.7,7.6,4.6,5.1,7,12.6,7,22.4v59.8c0,12.1-2.1,21.4-6.4,28-4.2,6.6-11.6,9.9-22.2,9.9h0ZM382.1,44.4c0-4.2-.6-7-1.7-8.2-1.1-1.2-3.4-1.8-6.9-1.8h-2.8v82.7h4.4c4.7,0,7-2.3,7-6.8V44.4ZM303.3,140.8c-10.2,0-18-3.1-23.4-9.2s-8.1-15.1-8.1-26.7v-60.6c0-10.9,2.7-19.2,8-24.9,5.3-5.7,13.2-8.5,23.5-8.5s18.1,2.8,23.5,8.5c5.3,5.7,8,13.9,8,24.9v60.6c0,11.7-2.7,20.6-8.1,26.7-5.4,6.2-13.2,9.2-23.4,9.2ZM309.3,43.8c0-6.3-1.9-9.4-5.7-9.4s-6.4,3.2-6.4,9.6v62.2c0,4,.5,6.8,1.5,8.5,1,1.7,2.6,2.6,4.8,2.6,3.9,0,5.8-3.8,5.8-11.2v-62.3h0ZM251.8,73.1c4,.8,6.8,2.8,8.4,6,1.6,3.2,2.4,7.3,2.4,12.3v48.3h-25.2v-50c0-3.7-.8-6-2.3-6.9-1.5-.9-4-1.3-7.4-1.3v58.2h-25.8V12h39.2c6.5,0,11.5,1.5,14.8,4.5,3.3,3,5.6,7.1,6.7,12.5s1.7,11.6,1.7,18.8-.9,12.5-2.6,16.7c-1.8,4.2-5.1,7-10,8.6h0ZM238.3,38c-.8-1.5-2.2-2.3-4.4-2.3h-5.9v23.6h6.2c3.5,0,5.3-3.8,5.3-11.5s-.4-8.2-1.2-9.8h0ZM183.7,84.4c-3.8,3.1-9.3,4.7-16.4,4.7h-10.4v50.5h-25.1V12h33.7c7.1,0,12.6,1.6,16.8,4.7,4.1,3.1,7.1,7.6,8.9,13.4,1.8,5.8,2.7,12.7,2.7,20.7s-.8,14.5-2.2,20.2c-1.5,5.7-4.2,10.2-8,13.3h0ZM167.2,39.2c-1-2.6-3.5-4-7.4-4h-2.8v30.9h1.4c4.7,0,7.6-1.3,8.7-4s1.6-6.6,1.6-11.8-.5-8.6-1.6-11.2ZM70.8,12h51v24.7h-25.1v24.9h24.1v24h-24.1v29.2h26.8v24.9h-52.7V12ZM49.7,73.1c4,.8,6.8,2.8,8.5,6,1.6,3.2,2.4,7.3,2.4,12.3v48.3h-25.2v-50c0-3.7-.8-6-2.3-6.9-1.5-.9-4-1.3-7.4-1.3v58.2H0V12h39.2c6.5,0,11.5,1.5,14.8,4.5s5.6,7.1,6.7,12.5c1.1,5.3,1.7,11.6,1.7,18.8s-.9,12.5-2.7,16.7c-1.8,4.2-5.1,7-10,8.6ZM36.3,38c-.8-1.5-2.2-2.3-4.4-2.3h-5.9v23.6h6.2c3.5,0,5.3-3.8,5.3-11.5s-.4-8.2-1.2-9.8h0ZM606.6,139.9h-6v-47.5h6v47.5ZM656.8,125.8c0,2.5.3,4.4,1.1,5.8s1.7,2.4,3,2.9,2.8.9,4.5.9,3.3-.3,4.6-.9c1.3-.6,2.3-1.5,3-2.9.7-1.4,1.1-3.3,1.1-5.8v-33.5h6v33.5c0,3.6-.7,6.4-2.1,8.6-1.4,2.1-3.2,3.7-5.4,4.7-2.2,1-4.6,1.4-7.2,1.4s-5.2-.5-7.4-1.4c-2.2-1-4-2.5-5.2-4.7-1.3-2.1-1.9-5-1.9-8.6v-33.5h6v33.5h0Z"/>
</svg>