<?xml version="1.0" encoding="utf-8"?>
<!-- Generator: Adobe Illustrator 27.9.0, SVG Export Plug-In . SVG Version: 6.00 Build 0)  -->
<svg version="1.1" id="Layer_1" xmlns:v="https://vecta.io/nano"
	 xmlns="http://www.w3.org/2000/svg" xmlns:xlink="http://www.w3.org/1999/xlink" x="0px" y="0px" viewBox="0 0 1132 109"
	 enable-background="new 0 0 1132 109" xml:space="preserve">
<path d="M28.8,82.6C3.8,84.1-8.1,51.6,8.5,35C18,23.3,47,23.5,48.8,41.7c-3.3,19.5-28.6,0.5-10.7-8.1C5,21.6,12.5,101.9,47.4,68.2
	l2.9,1.9C45.8,77.6,37.8,82.7,28.8,82.6z M67.4,74.6C43,46.5,80.3,9.8,107.7,35C132.4,63,95,99.6,67.4,74.6z M79,37.9
	c-3.9,8.1-3.9,25.6,0,33.7c3.5,8.7,13.9,8.7,17.4,0c3.9-8.1,3.9-25.6,0-33.7C92.9,29.1,82.5,29.1,79,37.9z M125.4,30.4
	c8.5-3.4,18.3-2.3,25.4,3.4c7.7-8.7,26.5-10.2,31.3,1.4c6.9-8.5,21.4-11.7,29.8-4c11.5,6.2-6.6,57.1,16.3,41.3l1.9,2.5
	c-11,11-30.4,11.6-29.7-7.8c-0.7-3.9,1.9-29.6-1.9-32c-5.5-4.9-15.4,0.9-14.9,8.4c0,0,0,37.5,0,37.5h-15.8c-0.8-3.5,2-44.4-1.9-45.9
	c-5.5-4.9-15.4,0.9-14.9,8.4c0,0,0,37.5,0,37.5h-15.8V32.7c-3.1,0-5.9,0.5-8.4,1.6L125.4,30.4L125.4,30.4z M256.8,33.3v36
	c-0.2,7.7,9.7,8.7,14.5,3.9c6.5-3.6,2.2-38.8,3.4-44.7h15.8v40.8c-0.2,7.2,7.3,7.7,12.1,3l1.9,2.5c-8.6,8.3-23.8,12.2-28.7-0.1
	c-7.2,8.2-22,11.1-30.6,3.7c-7.5-5.9-2.9-38.2-4.1-46.5c-3.9,1-6.8,2.7-8.8,5.1l-2.8-3.3C235.2,27.3,253.8,22.2,256.8,33.3z
	 M315.3,28.5c5.7,0,10.9,1.8,15.5,5.2c7.3-7.2,21.6-10.1,29.6-2.6c11.5,6.2-6.6,57.1,16.3,41.3l1.9,2.5c-11,11-30.4,11.6-29.7-7.8
	c0,0,0-27,0-27c-0.3-11.7-18.7-6.7-17.8,3.4c0,0,0,37.5,0,37.5h-15.8V32.7c-3.1,0-6,0.5-8.4,1.6l-1.5-3.9
	C308.4,29.1,311.7,28.5,315.3,28.5L315.3,28.5z M392.6,16.6C384.9,9,397-3.2,404.5,4.8C412.5,12.2,400.2,24.4,392.6,16.6z
	 M396.6,26.9c6.6,0,9.9,2.8,9.9,8.5v33.9c-0.2,7.2,7.3,7.7,12.1,3l1.9,2.5c-11,11-30.4,11.6-29.7-7.8c0,0,0-35.2,0-35.2
	c-3.9,1-6.8,2.7-8.8,5.1l-2.8-3.3C383.4,29.4,390.3,26.9,396.6,26.9L396.6,26.9z M453.2,82.6c-25,1.6-36.9-31-20.3-47.6
	c9.5-11.7,38.6-11.5,40.3,6.7c-3.3,19.5-28.6,0.5-10.7-8.1c-33.1-12.1-25.6,68.3,9.3,34.5l2.9,1.9C470.2,77.6,462.3,82.7,453.2,82.6
	z M540.1,28.5v40.8c-0.2,7.2,7.3,7.7,12.1,3l1.9,2.5c-9,9-25.5,12.1-29.1-1.7c-6.5,13-26.9,11.5-34.4,1.6
	c-4.2-5.2-6.3-11.9-6.3-19.9c0-8.1,2.2-14.8,6.7-20.1c7.2-9,26.4-11.9,33.4-0.4v-5.9L540.1,28.5L540.1,28.5z M503.4,38.8
	c-3.9,7.1-3.9,24.8,0,31.9c3.5,8,14.5,7.7,18.2,0c2.2-4,3.3-9.3,3.3-16C526.2,40.2,514.1,23.2,503.4,38.8L503.4,38.8z M586.7,82.6
	c-1,0-1.7,0-2.1-0.1l-3.3,6.6c17.7-5.5,21.4,19.4,2.9,19.7c-6.2,0.5-15.2-3.9-10.5-10.3c4.2-4.4,10.6,3.3,5.5,6.7
	c10.1,2.3,11.1-13.5,0.6-12.7l-2.3-1.8l4-8.6C559.6,79.8,551.3,50,566.4,35c9.5-11.7,38.6-11.5,40.3,6.7
	c-3.3,19.5-28.6,0.5-10.7-8.1c-33.1-12.1-25.6,68.3,9.3,34.5l2.9,1.9C603.7,77.6,595.8,82.7,586.7,82.6L586.7,82.6z M672,28.5v40.8
	c-0.2,7.2,7.3,7.7,12.1,3l1.9,2.5c-9,9-25.5,12.1-29.1-1.7c-6.5,13-26.9,11.5-34.4,1.6c-4.2-5.2-6.3-11.9-6.3-19.9
	c0-8.1,2.2-14.8,6.7-20.1c7.2-9,26.4-11.9,33.4-0.4v-5.9H672L672,28.5z M635.3,38.8c-3.9,7.1-3.9,24.8,0,31.9c3.5,8,14.5,7.7,18.2,0
	c2.2-4,3.3-9.3,3.3-16C658.2,40.2,646.1,23.2,635.3,38.8z M659.2,17.1c1.1-11.5-10-1.8-14.3,0.1c-10.4,6.8-16.5-5-13.1-14.1h3.8
	c-1.1,11.5,10,1.8,14.3-0.1C660.1-3.8,666.3,8,663,17.1H659.2z M698.4,74.6C673.9,46.5,711.2,9.8,738.6,35
	C763.3,63,725.9,99.6,698.4,74.6z M709.9,37.9c-3.9,8.1-3.9,25.6,0,33.7c3.5,8.7,13.9,8.7,17.4,0c3.9-8.1,3.9-25.6,0-33.7
	C723.8,29.1,713.4,29.1,709.9,37.9z M825.6,39.7C816,26,839,19.5,841.4,35.6c3.1,12.2,3.3,27-4.4,36.7c-7.6,10.3-24,13.7-33.4,5.8
	c-9.1-6.2-3.8-36.9-5.1-46.2c-3.8,1-6.8,2.7-8.8,5.1l-2.8-3.3c5.7-5.9,17.3-9.3,24.5-5c5.8,0.9,1.9,35.9,2.9,39.5
	c-0.1,4.5,3.2,6.9,7.3,6.8c14.7-1,19.3-21.8,14.3-34.3C832.9,42.6,828.3,42.6,825.6,39.7z M865.9,16.6c-7.8-7.6,4.4-19.9,11.9-11.9
	C885.7,12.3,873.4,24.4,865.9,16.6z M869.8,26.9c6.6,0,9.9,2.8,9.9,8.5v33.9c-0.2,7.2,7.3,7.7,12.1,3l1.9,2.5
	c-11,11-30.4,11.6-29.7-7.8c0,0,0-35.2,0-35.2c-3.8,1-6.8,2.7-8.8,5.1l-2.8-3.3C856.6,29.4,863.5,26.9,869.8,26.9z M910,37.1
	C897.8,17,934.5,19,920.4,37.3c38.9,24.9,6.2,61.9-23,37.6l2.4-2.5c22.9,13.5,27.9-11.8,15-28.3L899,63.9l-2.6-2.3
	C901.7,53,906.2,44.8,910,37.1z M970.1,33.3v36c-0.2,7.7,9.7,8.7,14.5,3.9c6.5-3.6,2.2-38.8,3.4-44.7h15.8v40.8
	c-0.2,7.2,7.3,7.7,12.1,3l1.9,2.5c-8.6,8.3-23.8,12.2-28.7-0.1c-7.2,8.2-22,11.1-30.6,3.7c-7.5-5.9-2.9-38.2-4.1-46.5
	c-3.8,1-6.8,2.7-8.8,5.1l-2.8-3.3C948.6,27.3,967.2,22.2,970.1,33.3z M1078.3,28.5v40.8c-0.2,7.2,7.3,7.7,12.1,3l1.9,2.5
	c-9,9-25.5,12.1-29.1-1.7c-6.5,13-26.9,11.5-34.4,1.6c-4.2-5.2-6.3-11.9-6.3-19.9c0-8.1,2.2-14.8,6.7-20.1c7.2-9,26.4-11.9,33.4-0.4
	v-5.9C1062.5,28.5,1078.3,28.5,1078.3,28.5z M1041.6,38.8c-3.9,7.1-3.9,24.8,0,31.9c3.5,8,14.5,7.7,18.2,0c2.2-4,3.3-9.3,3.3-16
	C1064.5,40.3,1052.4,23.2,1041.6,38.8z M1090.1,7.6c5.9-6.6,24.4-11.6,27.4-0.5c0,0,0,62.3,0,62.3c-0.2,7.2,7.3,7.7,12.1,3l1.9,2.5
	c-11,11-30.4,11.6-29.7-7.8c0,0,0-61.4,0-61.4c-3.8,1-6.8,2.7-8.8,5.1C1093,10.9,1090.1,7.6,1090.1,7.6z"/>
</svg>
