<svg xmlns="http://www.w3.org/2000/svg" xmlns:xlink="http://www.w3.org/1999/xlink" viewBox="0 0 700 570" id="logo_svg_file">
	<path id="aaa" d="M2.7,268.4V3.7h81.2c13.5,0,23.8,3.1,30.7,9.3c6.9,6.1,11.5,14.7,13.8,25.9c2.4,11,3.6,24,3.6,39
		c0,14.4-1.9,26-5.6,34.6c-3.6,8.6-10.5,14.6-20.6,17.9c8.3,1.7,14.1,5.9,17.4,12.5c3.4,6.5,5.1,15,5.1,25.4v100.1h-52V164.8
		c0-7.7-1.6-12.5-4.8-14.3c-3.1-1.9-8.2-2.9-15.2-2.9v120.8H2.7z M56.6,101.8h12.8c7.3,0,11-8,11-23.9c0-10.3-0.8-17.1-2.4-20.3s-4.6-4.8-9-4.8H56.6V101.8z"/>
	<path d="M149.5,268.4V3.7h105.9v51.1h-52v51.6h49.9v49.8h-49.9v60.6h55.5v51.6H149.5z"/>
	<path d="M276.4,268.4V3.7h69.9c14.6,0,26.2,3.3,34.7,9.8c8.6,6.5,14.8,15.8,18.5,27.8s5.6,26.4,5.6,43c0,16-1.6,30-4.7,42
		c-3.1,11.8-8.7,21-16.7,27.5c-7.9,6.5-19.2,9.8-33.8,9.8h-21.5v104.8H276.4z M328.5,116.1h3c9.8,0,15.8-2.8,18-8.3
		s3.3-13.6,3.3-24.4c0-10-1.1-17.7-3.3-23.2c-2.1-5.5-7.2-8.3-15.2-8.3h-5.9V116L328.5,116.1z"/>
	<path d="M422,268.4V3.7h81.2c13.5,0,23.8,3.1,30.7,9.3c6.9,6.1,11.5,14.7,13.8,25.9c2.4,11,3.6,24,3.6,39c0,14.4-1.9,26-5.6,34.6
		c-3.6,8.6-10.5,14.6-20.6,17.9c8.3,1.7,14.1,5.9,17.4,12.5c3.4,6.5,5.1,15,5.1,25.4v100.1h-52.2V164.8c0-7.7-1.6-12.5-4.8-14.3
		c-3.1-1.9-8.2-2.9-15.2-2.9v120.8H422z M475.9,101.8h12.8c7.3,0,11-8,11-23.9c0-10.3-0.8-17.1-2.4-20.3s-4.6-4.8-9-4.8H476v49H475.9z"/>
	<path d="M632,270.8c-21.2,0-37.3-6.4-48.6-19.1c-11.1-12.8-16.7-31.3-16.7-55.5V70.4c0-22.7,5.5-39.9,16.5-51.6
		C594.4,7.2,610.6,1.2,632,1.2s37.5,5.9,48.6,17.6s16.7,28.9,16.7,51.6v125.7c0,24.2-5.6,42.7-16.8,55.5
		C669.3,264.4,653.1,270.8,632,270.8z M632.4,222.1c8,0,12-7.8,12-23.3V69.6c0-13-3.9-19.6-11.7-19.6c-8.8,0-13.2,6.7-13.2,20v129c0,8.2,1,14.1,3,17.7S627.8,222.1,632.4,222.1z"/>
	<path d="M2.7,566.3V301.6h72.8c19,0,33.4,5.3,43,15.9c9.6,10.5,14.4,26,14.4,46.3v123.9c0,25.1-4.4,44.4-13.2,58.1
		c-8.7,13.6-24.1,20.5-46,20.5H2.7z M55.9,519.5h9.2c9.7,0,14.6-4.7,14.6-14.1V368.9c0-8.8-1.2-14.5-3.6-17
		c-2.3-2.6-7.1-3.9-14.3-3.9h-5.9V519.5L55.9,519.5z"/>
	<path d="M215.8,568.8c-22.1,0-38.3-6.2-48.7-18.5c-10.4-12.4-15.6-30.7-15.6-54.7V301.6h51.4v191.7c0,4.4,0.2,8.7,0.8,12.8
		c0.5,4,1.7,7.3,3.5,9.9s4.7,3.9,8.7,3.9c4.1,0,7.1-1.3,8.9-3.8c1.8-2.6,2.9-6,3.3-10.1c0.5-4.1,0.8-8.4,0.8-12.8V301.6h51.4v193.9
		c0,24.1-5.2,42.3-15.6,54.7C254.1,562.5,237.9,568.8,215.8,568.8L215.8,568.8z"/>
	<path d="M293.6,566.3v-48.1l60.6-167.9h-54.7v-48.7H410v46.3l-61.7,169.6h59.1v48.8H293.6z"/>
</svg>
