<?xml version="1.0" encoding="utf-8"?>
<!-- Generator: Adobe Illustrator 27.9.0, SVG Export Plug-In . SVG Version: 6.00 Build 0)  -->
<svg version="1.1" id="Layer_1" xmlns:v="https://vecta.io/nano"
	 xmlns="http://www.w3.org/2000/svg" xmlns:xlink="http://www.w3.org/1999/xlink" x="0px" y="0px" viewBox="0 0 745.8 209.7"
	 enable-background="new 0 0 745.8 209.7" xml:space="preserve">
<path d="M28,81.6C3,83.2-8.9,50.6,7.7,34c9.5-11.7,38.6-11.5,40.3,6.7c-3.3,19.5-28.6,0.5-10.7-8.1c-33.1-12.1-25.6,68.3,9.3,34.5
	l2.9,1.9C45,76.7,37,81.7,28,81.6z M66.6,73.6C42.2,45.5,79.5,8.9,106.9,34C131.6,62,94.2,98.6,66.6,73.6z M78.2,37
	c-3.9,8.1-3.9,25.6,0,33.7c3.5,8.7,13.9,8.7,17.4,0c3.9-8.1,3.9-25.6,0-33.7C92.1,28.2,81.7,28.2,78.2,37z M124.6,29.4
	c8.5-3.4,18.3-2.3,25.4,3.4c7.7-8.7,26.5-10.2,31.3,1.4c6.9-8.5,21.4-11.7,29.8-4c11.5,6.2-6.6,57.1,16.3,41.3l1.9,2.5
	c-11,11-30.4,11.6-29.7-7.8c-0.7-3.9,1.9-29.6-1.9-32c-5.5-4.9-15.4,0.9-14.9,8.4c0,0,0,37.5,0,37.5H167c-0.8-3.5,2-44.4-1.9-45.9
	c-5.5-4.9-15.4,0.9-14.9,8.4c0,0,0,37.5,0,37.5h-15.8V31.7c-3.1,0-5.9,0.5-8.4,1.6L124.6,29.4L124.6,29.4z M256,32.4v36
	c-0.2,7.7,9.7,8.7,14.5,3.9c6.5-3.6,2.2-38.8,3.4-44.7h15.8v40.8c-0.2,7.2,7.3,7.7,12.1,3l1.9,2.5c-8.6,8.3-23.8,12.2-28.7-0.1
	c-7.2,8.2-22,11.1-30.6,3.7c-7.5-5.9-2.9-38.2-4.1-46.5c-3.9,1-6.8,2.7-8.8,5.1l-2.8-3.3C234.4,26.3,253,21.3,256,32.4z M314.5,27.5
	c5.7,0,10.9,1.8,15.5,5.2c7.3-7.2,21.6-10.1,29.6-2.6c11.5,6.2-6.6,57.1,16.3,41.3l1.9,2.5c-11,11-30.4,11.6-29.7-7.8c0,0,0-27,0-27
	c-0.3-11.7-18.7-6.7-17.8,3.4c0,0,0,37.5,0,37.5h-15.8V31.7c-3.1,0-6,0.5-8.4,1.6l-1.5-3.9C307.6,28.2,310.9,27.5,314.5,27.5
	L314.5,27.5z M391.8,15.7c-7.8-7.6,4.4-19.9,11.9-11.9C411.7,11.3,399.4,23.4,391.8,15.7z M395.8,26c6.6,0,9.9,2.8,9.9,8.5v33.9
	c-0.2,7.2,7.3,7.7,12.1,3l1.9,2.5c-11,11-30.4,11.6-29.7-7.8c0,0,0-35.2,0-35.2c-3.9,1-6.8,2.7-8.8,5.1l-2.8-3.3
	C382.6,28.4,389.5,25.9,395.8,26L395.8,26z M452.4,81.6c-25,1.6-36.9-31-20.3-47.6c9.5-11.7,38.6-11.5,40.3,6.7
	c-3.3,19.5-28.6,0.5-10.7-8.1c-33.1-12.1-25.6,68.3,9.3,34.5l2.9,1.9C469.4,76.7,461.5,81.7,452.4,81.6z M539.3,27.5v40.8
	c-0.2,7.2,7.3,7.7,12.1,3l1.9,2.5c-9,9-25.5,12.1-29.1-1.7c-6.5,13-26.9,11.5-34.4,1.6c-4.2-5.2-6.3-11.9-6.3-19.9
	c0-8.1,2.2-14.8,6.7-20.1c7.2-9,26.4-11.9,33.4-0.4v-5.9L539.3,27.5L539.3,27.5z M502.6,37.8c-3.9,7.1-3.9,24.8,0,31.9
	c3.5,8,14.5,7.7,18.2,0c2.2-4,3.3-9.3,3.3-16C525.4,39.3,513.3,22.2,502.6,37.8L502.6,37.8z M585.9,81.6c-1,0-1.7,0-2.1-0.1
	l-3.3,6.6c17.7-5.5,21.4,19.4,2.9,19.7c-6.2,0.5-15.2-3.9-10.5-10.3c4.2-4.4,10.6,3.3,5.5,6.7c10.1,2.3,11.1-13.5,0.6-12.7l-2.3-1.8
	l4-8.6C558.8,78.9,550.5,49,565.6,34c9.5-11.7,38.6-11.5,40.3,6.7c-3.3,19.5-28.6,0.5-10.7-8.1c-33.1-12.1-25.6,68.3,9.3,34.5
	l2.9,1.9C602.9,76.7,595,81.7,585.9,81.6L585.9,81.6z M671.2,27.5v40.8c-0.2,7.2,7.3,7.7,12.1,3l1.9,2.5c-9,9-25.5,12.1-29.1-1.7
	c-6.5,13-26.9,11.5-34.4,1.6c-4.2-5.2-6.3-11.9-6.3-19.9c0-8.1,2.2-14.8,6.7-20.1c7.2-9,26.4-11.9,33.4-0.4v-5.9H671.2L671.2,27.5z
	 M634.5,37.8c-3.9,7.1-3.9,24.8,0,31.9c3.5,8,14.5,7.7,18.2,0c2.2-4,3.3-9.3,3.3-16C657.4,39.3,645.3,22.2,634.5,37.8z M658.4,16.1
	c1.1-11.5-10-1.8-14.3,0.1c-10.4,6.8-16.5-5-13.1-14.1h3.8c-1.1,11.5,10,1.8,14.3-0.1c10.3-6.8,16.5,5.1,13.1,14.1H658.4z
	 M697.6,73.6C673.1,45.5,710.4,8.9,737.8,34C762.5,62,725.1,98.6,697.6,73.6z M709.1,37c-3.9,8.1-3.9,25.6,0,33.7
	c3.5,8.7,13.9,8.7,17.4,0c3.9-8.1,3.9-25.6,0-33.7C723,28.2,712.6,28.2,709.1,37z M332.8,151.9c-12.9-18.5,17.9-27.1,21.1-5.5
	c4.2,16.3,4.4,36.2-5.9,49.3c-10.2,13.8-32.2,18.4-44.8,7.7c-12.2-8.3-5.1-49.5-6.9-62c-5.2,1.3-9.1,3.6-11.8,6.9l-3.8-4.4
	c7.6-7.9,23.1-12.5,32.8-6.8c7.8,1.2,2.5,48.2,3.9,52.9c-0.1,6,4.2,9.2,9.9,9.2c19.8-1.3,25.9-29.3,19.2-46
	C342.6,155.8,336.5,155.7,332.8,151.9z M386.8,120.9c-10.4-10.2,5.9-26.6,15.9-15.9C413.4,115,397,131.3,386.8,120.9z M392.1,134.7
	c8.8,0,13.2,3.8,13.2,11.4v45.5c-0.3,9.6,9.8,10.3,16.2,4.1l2.5,3.4c-14.7,14.7-40.7,15.6-39.9-10.4c0,0,0-47.2,0-47.2
	c-5.2,1.3-9.1,3.6-11.8,6.9l-3.8-4.4C374.4,138,383.7,134.6,392.1,134.7z M446,148.3c-16.3-27,32.8-24.3,13.9,0.3
	c52.1,33.4,8.3,83-30.8,50.4l3.2-3.4c30.7,18.1,37.4-15.9,20.1-38l-21.3,26.6l-3.5-3.1C434.8,169.6,440.9,158.7,446,148.3z
	 M526.6,143.3v48.3c-0.2,10.3,13,11.7,19.4,5.2c8.7-4.8,3-52,4.5-60h21.1v54.8c-0.3,9.6,9.8,10.3,16.2,4.1l2.5,3.4
	c-11.5,11.1-32,16.4-38.4-0.1c-9.6,10.9-29.4,15-41,4.9c-10.1-8-3.9-51.2-5.5-62.4c-5.2,1.3-9.1,3.6-11.8,6.9l-3.8-4.4
	C497.8,135.1,522.7,128.4,526.6,143.3z M671.7,136.8v54.8c-0.3,9.6,9.8,10.3,16.2,4.1l2.5,3.4c-12,12-34.2,16.3-39-2.3
	c-8.7,17.4-36.1,15.4-46.2,2.1c-5.6-7-8.4-16-8.4-26.8c0-10.9,3-19.9,9-26.9c9.6-12,35.4-15.9,44.8-0.6v-7.9
	C650.6,136.8,671.7,136.8,671.7,136.8z M622.5,150.6c-5.3,9.6-5.3,33.2,0,42.8c4.8,10.7,19.4,10.4,24.4,0c2.9-5.4,4.4-12.5,4.4-21.4
	C653.2,152.6,636.9,129.6,622.5,150.6z M687.6,108.8c7.9-8.9,32.8-15.6,36.8-0.7c0,0,0,83.5,0,83.5c-0.3,9.6,9.8,10.3,16.2,4.1
	l2.5,3.4c-14.7,14.7-40.7,15.6-39.8-10.4c0,0,0-82.4,0-82.4c-5.2,1.3-9.1,3.6-11.8,6.9C691.4,113.1,687.6,108.8,687.6,108.8z"/>
</svg>
