<svg width="1132" height="109" viewBox="0 0 1132 109" fill="none" xmlns="http://www.w3.org/2000/svg">
<path d="M28.755 82.575C20.425 82.575 13.67 79.915 8.49001 74.595C3.38001 69.205 0.825012 62.59 0.825012 54.75C0.825012 46.91 3.38001 40.33 8.49001 35.01C13.67 29.62 20.39 26.925 28.65 26.925C33.27 26.925 37.785 28.255 42.195 30.915C46.605 33.575 48.81 37.18 48.81 41.73C48.81 44.04 47.97 46.035 46.29 47.715C44.68 49.325 42.72 50.13 40.41 50.13C38.1 50.13 36.105 49.325 34.425 47.715C32.815 46.035 32.01 44.145 32.01 42.045C32.01 39.945 32.57 38.16 33.69 36.69C34.81 35.22 36.28 34.205 38.1 33.645C36.14 32.805 33.9 32.385 31.38 32.385C26.69 32.385 23.12 34.485 20.67 38.685C18.29 42.815 17.1 48.1 17.1 54.54C17.1 60.91 18.29 66.09 20.67 70.08C23.12 74.07 26.69 76.065 31.38 76.065C37.68 76.065 43.035 73.44 47.445 68.19L50.385 70.08C48.075 73.86 45.03 76.905 41.25 79.215C37.54 81.455 33.375 82.575 28.755 82.575Z" fill="black"/>
<path d="M67.45 74.595C62.34 69.205 59.785 62.59 59.785 54.75C59.785 46.91 62.34 40.33 67.45 35.01C72.63 29.62 79.35 26.925 87.61 26.925C95.87 26.925 102.555 29.62 107.665 35.01C112.845 40.33 115.435 46.91 115.435 54.75C115.435 62.59 112.845 69.205 107.665 74.595C102.555 79.915 95.87 82.575 87.61 82.575C79.35 82.575 72.63 79.915 67.45 74.595ZM79 37.95C77.04 42.29 76.06 47.89 76.06 54.75C76.06 61.61 77.04 67.245 79 71.655C80.96 75.995 83.865 78.165 87.715 78.165C91.565 78.165 94.47 75.995 96.43 71.655C98.39 67.245 99.37 61.61 99.37 54.75C99.37 47.89 98.39 42.29 96.43 37.95C94.47 33.54 91.565 31.335 87.715 31.335C83.865 31.335 80.96 33.54 79 37.95Z" fill="black"/>
<path d="M125.426 30.39C128.436 29.13 131.656 28.5 135.086 28.5C138.586 28.5 141.456 28.92 143.696 29.76C146.006 30.6 148.386 31.93 150.836 33.75C153.356 31.23 155.911 29.48 158.501 28.5C161.161 27.45 164.276 26.925 167.846 26.925C174.986 26.925 179.746 29.655 182.126 35.115C184.856 32.105 187.586 30.005 190.316 28.815C193.116 27.555 196.721 26.925 201.131 26.925C205.611 26.925 209.216 28.325 211.946 31.125C214.746 33.855 216.146 37.6 216.146 42.36V69.345C216.146 71.235 216.601 72.74 217.511 73.86C218.421 74.91 219.821 75.435 221.711 75.435C223.601 75.435 225.771 74.42 228.221 72.39L230.111 74.91C224.511 80.02 218.911 82.575 213.311 82.575C204.701 82.575 200.396 77.43 200.396 67.14V40.155C200.396 37.985 199.766 36.305 198.506 35.115C197.246 33.925 195.496 33.33 193.256 33.33C191.086 33.33 188.916 34.275 186.746 36.165C184.646 38.055 183.596 40.505 183.596 43.515V81H167.846V40.155C167.846 37.985 167.216 36.305 165.956 35.115C164.696 33.925 162.946 33.33 160.706 33.33C158.536 33.33 156.366 34.275 154.196 36.165C152.096 38.055 151.046 40.505 151.046 43.515V81H135.296V32.7C132.146 32.7 129.346 33.225 126.896 34.275L125.426 30.39Z" fill="black"/>
<path d="M256.764 33.33V69.345C256.764 71.515 257.429 73.195 258.759 74.385C260.089 75.575 261.944 76.17 264.324 76.17C266.704 76.17 269.014 75.19 271.254 73.23C273.494 71.27 274.614 68.715 274.614 65.565V28.5H290.364V69.345C290.364 71.235 290.819 72.74 291.729 73.86C292.639 74.91 294.039 75.435 295.929 75.435C297.819 75.435 299.989 74.42 302.439 72.39L304.329 74.91C298.729 80.02 293.024 82.575 287.214 82.575C281.404 82.575 277.554 79.985 275.664 74.805C272.934 77.675 270.099 79.705 267.159 80.895C264.289 82.015 260.579 82.575 256.029 82.575C251.549 82.575 247.909 81.21 245.109 78.48C242.379 75.68 241.014 71.9 241.014 67.14V31.965C237.164 32.945 234.224 34.66 232.194 37.11L229.359 33.855C231.389 31.755 233.944 30.075 237.024 28.815C240.174 27.555 243.254 26.925 246.264 26.925C249.344 26.925 251.864 27.555 253.824 28.815C255.784 30.005 256.764 31.51 256.764 33.33Z" fill="black"/>
<path d="M315.252 28.5C320.992 28.5 326.172 30.25 330.792 33.75C333.452 31.23 336.182 29.48 338.982 28.5C341.782 27.45 345.352 26.925 349.692 26.925C354.102 26.925 357.672 28.325 360.402 31.125C363.202 33.855 364.602 37.6 364.602 42.36V69.345C364.602 71.235 365.057 72.74 365.967 73.86C366.877 74.91 368.277 75.435 370.167 75.435C372.057 75.435 374.227 74.42 376.677 72.39L378.567 74.91C372.967 80.02 367.367 82.575 361.767 82.575C353.157 82.575 348.852 77.43 348.852 67.14V40.155C348.852 37.985 348.187 36.305 346.857 35.115C345.527 33.925 343.672 33.33 341.292 33.33C338.982 33.33 336.672 34.275 334.362 36.165C332.122 38.055 331.002 40.505 331.002 43.515V81H315.252V32.7C312.102 32.7 309.302 33.225 306.852 34.275L305.382 30.39C308.392 29.13 311.682 28.5 315.252 28.5Z" fill="black"/>
<path d="M392.641 16.635C391.031 14.955 390.226 12.96 390.226 10.65C390.226 8.33999 391.031 6.37999 392.641 4.76999C394.321 3.08999 396.316 2.24999 398.626 2.24999C400.936 2.24999 402.896 3.08999 404.506 4.76999C406.186 6.37999 407.026 8.33999 407.026 10.65C407.026 12.96 406.186 14.955 404.506 16.635C402.896 18.245 400.936 19.05 398.626 19.05C396.316 19.05 394.321 18.245 392.641 16.635ZM396.631 26.925C403.211 26.925 406.501 29.76 406.501 35.43V69.345C406.501 71.235 406.956 72.74 407.866 73.86C408.776 74.91 410.176 75.435 412.066 75.435C413.956 75.435 416.126 74.42 418.576 72.39L420.466 74.91C414.866 80.02 409.266 82.575 403.666 82.575C395.056 82.575 390.751 77.43 390.751 67.14V31.965C386.901 32.945 383.961 34.66 381.931 37.11L379.096 33.855C381.126 31.755 383.681 30.075 386.761 28.815C389.911 27.555 393.201 26.925 396.631 26.925Z" fill="black"/>
<path d="M453.164 82.575C444.834 82.575 438.079 79.915 432.899 74.595C427.789 69.205 425.234 62.59 425.234 54.75C425.234 46.91 427.789 40.33 432.899 35.01C438.079 29.62 444.799 26.925 453.059 26.925C457.679 26.925 462.194 28.255 466.604 30.915C471.014 33.575 473.219 37.18 473.219 41.73C473.219 44.04 472.379 46.035 470.699 47.715C469.089 49.325 467.129 50.13 464.819 50.13C462.509 50.13 460.514 49.325 458.834 47.715C457.224 46.035 456.419 44.145 456.419 42.045C456.419 39.945 456.979 38.16 458.099 36.69C459.219 35.22 460.689 34.205 462.509 33.645C460.549 32.805 458.309 32.385 455.789 32.385C451.099 32.385 447.529 34.485 445.079 38.685C442.699 42.815 441.509 48.1 441.509 54.54C441.509 60.91 442.699 66.09 445.079 70.08C447.529 74.07 451.099 76.065 455.789 76.065C462.089 76.065 467.444 73.44 471.854 68.19L474.794 70.08C472.484 73.86 469.439 76.905 465.659 79.215C461.949 81.455 457.784 82.575 453.164 82.575Z" fill="black"/>
<path d="M540.054 28.5V69.345C540.054 71.235 540.509 72.74 541.419 73.86C542.329 74.91 543.729 75.435 545.619 75.435C547.509 75.435 549.679 74.42 552.129 72.39L554.019 74.91C548.419 80.02 542.819 82.575 537.219 82.575C530.569 82.575 526.474 79.46 524.934 73.23C521.294 79.46 515.939 82.575 508.869 82.575C500.819 82.575 494.694 79.985 490.494 74.805C486.294 69.555 484.194 62.905 484.194 54.855C484.194 46.735 486.434 40.05 490.914 34.8C495.464 29.55 501.799 26.925 509.919 26.925C516.149 26.925 520.944 29.41 524.304 34.38V28.5H540.054ZM503.409 38.79C501.449 42.71 500.469 48.03 500.469 54.75C500.469 61.47 501.449 66.79 503.409 70.71C505.369 74.63 508.344 76.59 512.334 76.59C516.394 76.59 519.474 74.63 521.574 70.71C523.744 66.72 524.829 61.4 524.829 54.75C524.829 48.1 523.744 42.815 521.574 38.895C519.474 34.905 516.394 32.91 512.334 32.91C508.344 32.91 505.369 34.87 503.409 38.79Z" fill="black"/>
<path d="M586.67 82.575C585.69 82.575 584.99 82.54 584.57 82.47L581.315 89.085C582.505 88.595 583.94 88.35 585.62 88.35C588.91 88.35 591.57 89.295 593.6 91.185C595.63 93.075 596.645 95.455 596.645 98.325C596.645 101.195 595.42 103.645 592.97 105.675C590.59 107.775 587.685 108.825 584.255 108.825C580.825 108.825 577.99 108.195 575.75 106.935C573.58 105.675 572.495 103.89 572.495 101.58C572.495 100.39 572.915 99.375 573.755 98.535C574.595 97.695 575.575 97.275 576.695 97.275C577.885 97.275 578.9 97.695 579.74 98.535C580.65 99.445 581.105 100.565 581.105 101.895C581.105 103.225 580.475 104.345 579.215 105.255C579.775 105.395 580.3 105.465 580.79 105.465C582.82 105.465 584.43 104.835 585.62 103.575C586.88 102.315 587.51 100.81 587.51 99.06C587.51 97.38 586.845 95.875 585.515 94.545C584.185 93.215 582.295 92.55 579.845 92.55L577.535 90.765L581.525 82.155C574.595 81.105 569.065 78.025 564.935 72.915C560.805 67.805 558.74 61.54 558.74 54.12C558.74 46.7 561.295 40.33 566.405 35.01C571.585 29.62 578.305 26.925 586.565 26.925C591.185 26.925 595.7 28.255 600.11 30.915C604.52 33.575 606.725 37.18 606.725 41.73C606.725 44.04 605.885 46.035 604.205 47.715C602.595 49.325 600.635 50.13 598.325 50.13C596.015 50.13 594.02 49.325 592.34 47.715C590.73 46.035 589.925 44.145 589.925 42.045C589.925 39.945 590.485 38.16 591.605 36.69C592.725 35.22 594.195 34.205 596.015 33.645C594.055 32.805 591.815 32.385 589.295 32.385C584.605 32.385 581.035 34.485 578.585 38.685C576.205 42.815 575.015 48.1 575.015 54.54C575.015 60.91 576.205 66.09 578.585 70.08C581.035 74.07 584.605 76.065 589.295 76.065C595.595 76.065 600.95 73.44 605.36 68.19L608.3 70.08C605.99 73.86 602.945 76.905 599.165 79.215C595.455 81.455 591.29 82.575 586.67 82.575Z" fill="black"/>
<path d="M671.985 28.5V69.345C671.985 71.235 672.44 72.74 673.35 73.86C674.26 74.91 675.66 75.435 677.55 75.435C679.44 75.435 681.61 74.42 684.06 72.39L685.95 74.91C680.35 80.02 674.75 82.575 669.15 82.575C662.5 82.575 658.405 79.46 656.865 73.23C653.225 79.46 647.87 82.575 640.8 82.575C632.75 82.575 626.625 79.985 622.425 74.805C618.225 69.555 616.125 62.905 616.125 54.855C616.125 46.735 618.365 40.05 622.845 34.8C627.395 29.55 633.73 26.925 641.85 26.925C648.08 26.925 652.875 29.41 656.235 34.38V28.5H671.985ZM635.34 38.79C633.38 42.71 632.4 48.03 632.4 54.75C632.4 61.47 633.38 66.79 635.34 70.71C637.3 74.63 640.275 76.59 644.265 76.59C648.325 76.59 651.405 74.63 653.505 70.71C655.675 66.72 656.76 61.4 656.76 54.75C656.76 48.1 655.675 42.815 653.505 38.895C651.405 34.905 648.325 32.91 644.265 32.91C640.275 32.91 637.3 34.87 635.34 38.79ZM659.175 17.055V15.48C659.175 12.75 658.195 11.385 656.235 11.385C655.395 11.385 654.59 11.63 653.82 12.12L644.895 17.16C642.655 18.49 640.555 19.155 638.595 19.155C636.635 19.155 634.85 18.245 633.24 16.425C631.7 14.605 630.93 12.505 630.93 10.125C630.93 7.67499 631.21 5.32999 631.77 3.08999H635.55V4.66499C635.55 7.39499 636.53 8.75999 638.49 8.75999C639.33 8.75999 640.135 8.51499 640.905 8.02499L649.83 2.98499C652.07 1.65499 654.17 0.98999 656.13 0.98999C658.09 0.98999 659.84 1.89999 661.38 3.71999C662.99 5.53999 663.795 7.67499 663.795 10.125C663.795 12.505 663.515 14.815 662.955 17.055H659.175Z" fill="black"/>
<path d="M698.373 74.595C693.263 69.205 690.708 62.59 690.708 54.75C690.708 46.91 693.263 40.33 698.373 35.01C703.553 29.62 710.273 26.925 718.533 26.925C726.793 26.925 733.478 29.62 738.588 35.01C743.768 40.33 746.358 46.91 746.358 54.75C746.358 62.59 743.768 69.205 738.588 74.595C733.478 79.915 726.793 82.575 718.533 82.575C710.273 82.575 703.553 79.915 698.373 74.595ZM709.923 37.95C707.963 42.29 706.983 47.89 706.983 54.75C706.983 61.61 707.963 67.245 709.923 71.655C711.883 75.995 714.788 78.165 718.638 78.165C722.488 78.165 725.393 75.995 727.353 71.655C729.313 67.245 730.293 61.61 730.293 54.75C730.293 47.89 729.313 42.29 727.353 37.95C725.393 33.54 722.488 31.335 718.638 31.335C714.788 31.335 711.883 33.54 709.923 37.95Z" fill="black"/>
<path d="M825.629 39.735C824.089 38.125 823.319 36.2 823.319 33.96C823.319 31.72 824.089 29.83 825.629 28.29C827.239 26.68 829.234 25.875 831.614 25.875C833.994 25.875 836.024 26.785 837.704 28.605C839.454 30.355 840.679 32.7 841.379 35.64C842.709 40.75 843.374 45.755 843.374 50.655C843.374 55.555 842.779 59.825 841.589 63.465C840.399 67.105 838.859 70.08 836.969 72.39C835.079 74.63 832.979 76.555 830.669 78.165C826.329 81.105 822.024 82.575 817.754 82.575C811.804 82.575 807.079 81.105 803.579 78.165C800.149 75.155 798.434 70.78 798.434 65.04V31.965C794.584 32.945 791.644 34.66 789.614 37.11L786.779 33.855C788.809 31.755 791.364 30.075 794.444 28.815C797.594 27.555 800.674 26.925 803.684 26.925C806.764 26.925 809.284 27.555 811.244 28.815C813.204 30.005 814.184 31.51 814.184 33.33V68.295C814.184 70.535 814.884 72.25 816.284 73.44C817.684 74.56 819.434 75.12 821.534 75.12C825.944 75.12 829.759 72.845 832.979 68.295C836.199 63.675 837.809 58.04 837.809 51.39C837.809 48.03 837.144 44.495 835.814 40.785C834.554 41.625 832.944 42.045 830.984 42.045C829.024 42.045 827.239 41.275 825.629 39.735Z" fill="black"/>
<path d="M865.858 16.635C864.248 14.955 863.443 12.96 863.443 10.65C863.443 8.33999 864.248 6.37999 865.858 4.76999C867.538 3.08999 869.534 2.24999 871.844 2.24999C874.154 2.24999 876.114 3.08999 877.724 4.76999C879.404 6.37999 880.243 8.33999 880.243 10.65C880.243 12.96 879.404 14.955 877.724 16.635C876.114 18.245 874.154 19.05 871.844 19.05C869.534 19.05 867.538 18.245 865.858 16.635ZM869.849 26.925C876.429 26.925 879.719 29.76 879.719 35.43V69.345C879.719 71.235 880.173 72.74 881.083 73.86C881.993 74.91 883.394 75.435 885.284 75.435C887.174 75.435 889.344 74.42 891.794 72.39L893.683 74.91C888.083 80.02 882.483 82.575 876.883 82.575C868.273 82.575 863.969 77.43 863.969 67.14V31.965C860.119 32.945 857.178 34.66 855.148 37.11L852.313 33.855C854.343 31.755 856.899 30.075 859.979 28.815C863.129 27.555 866.419 26.925 869.849 26.925Z" fill="black"/>
<path d="M910.002 37.11C908.322 34.52 907.482 32.21 907.482 30.18C907.482 28.15 908.252 26.365 909.792 24.825C911.402 23.215 913.327 22.41 915.567 22.41C917.807 22.41 919.697 23.215 921.237 24.825C922.847 26.365 923.652 28.22 923.652 30.39C923.652 32.56 922.567 34.87 920.397 37.32C926.137 41.52 930.547 45.65 933.627 49.71C936.707 53.7 938.247 58.355 938.247 63.675C938.247 68.925 936.252 73.405 932.262 77.115C928.272 80.755 922.602 82.575 915.252 82.575C911.892 82.575 908.497 81.84 905.067 80.37C901.707 78.9 899.152 77.08 897.402 74.91L899.817 72.39C902.897 74.84 906.222 76.065 909.792 76.065C913.362 76.065 916.267 75.12 918.507 73.23C920.817 71.27 921.972 68.26 921.972 64.2C921.972 57.76 919.592 51.04 914.832 44.04L898.977 63.885L896.352 61.575C901.672 52.965 906.222 44.81 910.002 37.11Z" fill="black"/>
<path d="M970.128 33.33V69.345C970.128 71.515 970.793 73.195 972.123 74.385C973.453 75.575 975.308 76.17 977.688 76.17C980.068 76.17 982.378 75.19 984.618 73.23C986.858 71.27 987.978 68.715 987.978 65.565V28.5H1003.73V69.345C1003.73 71.235 1004.18 72.74 1005.09 73.86C1006 74.91 1007.4 75.435 1009.29 75.435C1011.18 75.435 1013.35 74.42 1015.8 72.39L1017.69 74.91C1012.09 80.02 1006.39 82.575 1000.58 82.575C994.768 82.575 990.918 79.985 989.028 74.805C986.298 77.675 983.463 79.705 980.523 80.895C977.653 82.015 973.943 82.575 969.393 82.575C964.913 82.575 961.273 81.21 958.473 78.48C955.743 75.68 954.378 71.9 954.378 67.14V31.965C950.528 32.945 947.588 34.66 945.558 37.11L942.723 33.855C944.753 31.755 947.308 30.075 950.388 28.815C953.538 27.555 956.618 26.925 959.628 26.925C962.708 26.925 965.228 27.555 967.188 28.815C969.148 30.005 970.128 31.51 970.128 33.33Z" fill="black"/>
<path d="M1078.28 28.5V69.345C1078.28 71.235 1078.74 72.74 1079.65 73.86C1080.56 74.91 1081.96 75.435 1083.85 75.435C1085.74 75.435 1087.91 74.42 1090.36 72.39L1092.25 74.91C1086.65 80.02 1081.05 82.575 1075.45 82.575C1068.8 82.575 1064.7 79.46 1063.16 73.23C1059.52 79.46 1054.17 82.575 1047.1 82.575C1039.05 82.575 1032.92 79.985 1028.72 74.805C1024.52 69.555 1022.42 62.905 1022.42 54.855C1022.42 46.735 1024.66 40.05 1029.14 34.8C1033.69 29.55 1040.03 26.925 1048.15 26.925C1054.38 26.925 1059.17 29.41 1062.53 34.38V28.5H1078.28ZM1041.64 38.79C1039.68 42.71 1038.7 48.03 1038.7 54.75C1038.7 61.47 1039.68 66.79 1041.64 70.71C1043.6 74.63 1046.57 76.59 1050.56 76.59C1054.62 76.59 1057.7 74.63 1059.8 70.71C1061.97 66.72 1063.06 61.4 1063.06 54.75C1063.06 48.1 1061.97 42.815 1059.8 38.895C1057.7 34.905 1054.62 32.91 1050.56 32.91C1046.57 32.91 1043.6 34.87 1041.64 38.79Z" fill="black"/>
<path d="M1090.14 7.60499C1092.17 5.50499 1094.73 3.82499 1097.81 2.56499C1100.96 1.30499 1104.04 0.674988 1107.05 0.674988C1110.13 0.674988 1112.65 1.30499 1114.61 2.56499C1116.57 3.75499 1117.55 5.25999 1117.55 7.07999V69.345C1117.55 71.235 1118 72.74 1118.91 73.86C1119.82 74.91 1121.22 75.435 1123.11 75.435C1125 75.435 1127.17 74.42 1129.62 72.39L1131.51 74.91C1125.91 80.02 1120.31 82.575 1114.71 82.575C1106.1 82.575 1101.8 77.43 1101.8 67.14V5.71499C1097.95 6.69499 1095.01 8.40999 1092.98 10.86L1090.14 7.60499Z" fill="black"/>
</svg>
