<?xml version="1.0" encoding="utf-8"?>
<!-- Generator: Adobe Illustrator 27.9.0, SVG Export Plug-In . SVG Version: 6.00 Build 0)  -->
<svg version="1.1" id="Layer_1" xmlns:v="https://vecta.io/nano"
	 xmlns="http://www.w3.org/2000/svg" xmlns:xlink="http://www.w3.org/1999/xlink" x="0px" y="0px" viewBox="0 0 748 212"
	 style="enable-background:new 0 0 748 212;" xml:space="preserve">
<path d="M29.1,82.8c-25,1.6-36.9-31-20.3-47.6c9.5-11.7,38.6-11.5,40.3,6.7c-3.3,19.5-28.6,0.5-10.7-8.1
	c-33.1-12.1-25.6,68.3,9.3,34.5l2.9,1.9C46.1,77.8,38.1,82.8,29.1,82.8z M67.7,74.8C43.3,46.7,80.6,10.1,108,35.2
	C132.7,63.2,95.3,99.8,67.7,74.8z M79.3,38.2c-3.9,8.1-3.9,25.6,0,33.7c3.5,8.7,13.9,8.7,17.4,0c3.9-8.1,3.9-25.6,0-33.7
	C93.2,29.4,82.8,29.4,79.3,38.2z M125.7,30.6c8.5-3.4,18.3-2.3,25.4,3.4c7.7-8.7,26.5-10.2,31.3,1.4c6.9-8.5,21.4-11.7,29.8-4
	c11.5,6.2-6.6,57.1,16.3,41.3l1.9,2.5c-11,11-30.4,11.6-29.7-7.8c-0.7-3.9,1.9-29.6-1.9-32c-5.5-4.9-15.4,0.9-14.9,8.4v37.5h-15.8
	c-0.8-3.5,2-44.4-1.9-45.9c-5.5-4.9-15.4,0.9-14.9,8.4v37.5h-15.8V32.9c-3.1,0-5.9,0.5-8.4,1.6L125.7,30.6L125.7,30.6z M257.1,33.6
	v36c-0.2,7.7,9.7,8.7,14.5,3.9c6.5-3.6,2.2-38.8,3.4-44.7h15.8v40.8c-0.2,7.2,7.3,7.7,12.1,3l1.9,2.5c-8.6,8.3-23.8,12.2-28.7-0.1
	c-7.2,8.2-22,11.1-30.6,3.7c-7.5-5.9-2.9-38.2-4.1-46.5c-3.9,1-6.8,2.7-8.8,5.1l-2.8-3.3C235.5,27.5,254.1,22.5,257.1,33.6z
	 M315.6,28.7c5.7,0,10.9,1.8,15.5,5.2c7.3-7.2,21.6-10.1,29.6-2.6c11.5,6.2-6.6,57.1,16.3,41.3l1.9,2.5c-11,11-30.4,11.6-29.7-7.8
	v-27c-0.3-11.7-18.7-6.7-17.8,3.4v37.5h-15.8V32.9c-3.1,0-6,0.5-8.4,1.6l-1.5-3.9C308.7,29.4,312,28.7,315.6,28.7L315.6,28.7z
	 M392.9,16.9C385.1,9.3,397.3-3,404.8,5C412.8,12.5,400.5,24.6,392.9,16.9z M396.9,27.2c6.6,0,9.9,2.8,9.9,8.5v33.9
	c-0.2,7.2,7.3,7.7,12.1,3l1.9,2.5c-11,11-30.4,11.6-29.7-7.8V32c-3.9,1-6.8,2.7-8.8,5.1l-2.8-3.3C383.7,29.6,390.6,27.1,396.9,27.2
	L396.9,27.2z M453.5,82.8c-25,1.6-36.9-31-20.3-47.6c9.5-11.7,38.6-11.5,40.3,6.7c-3.3,19.5-28.6,0.5-10.7-8.1
	c-33.1-12.1-25.6,68.3,9.3,34.5l2.9,1.9C470.5,77.8,462.6,82.8,453.5,82.8z M540.4,28.7v40.8c-0.2,7.2,7.3,7.7,12.1,3l1.9,2.5
	c-9,9-25.5,12.1-29.1-1.7c-6.5,13-26.9,11.5-34.4,1.6c-4.2-5.2-6.3-11.9-6.3-19.9c0-8.1,2.2-14.8,6.7-20.1c7.2-9,26.4-11.9,33.4-0.4
	v-5.9L540.4,28.7L540.4,28.7z M503.7,39c-3.9,7.1-3.9,24.8,0,31.9c3.5,8,14.5,7.7,18.2,0c2.2-4,3.3-9.3,3.3-16
	C526.5,40.5,514.4,23.4,503.7,39L503.7,39z M587,82.8c-1,0-1.7,0-2.1-0.1l-3.3,6.6c17.7-5.5,21.4,19.4,2.9,19.7
	c-6.2,0.5-15.2-3.9-10.5-10.3c4.2-4.4,10.6,3.3,5.5,6.7c10.1,2.3,11.1-13.5,0.6-12.7l-2.3-1.8l4-8.6c-21.9-2.2-30.2-32.1-15.1-47.1
	c9.5-11.7,38.6-11.5,40.3,6.7c-3.3,19.5-28.6,0.5-10.7-8.1c-33.1-12.1-25.6,68.3,9.3,34.5l2.9,1.9C604,77.8,596.1,82.8,587,82.8
	L587,82.8z M672.3,28.7v40.8c-0.2,7.2,7.3,7.7,12.1,3l1.9,2.5c-9,9-25.5,12.1-29.1-1.7c-6.5,13-26.9,11.5-34.4,1.6
	c-4.2-5.2-6.3-11.9-6.3-19.9c0-8.1,2.2-14.8,6.7-20.1c7.2-9,26.4-11.9,33.4-0.4v-5.9L672.3,28.7L672.3,28.7z M635.6,39
	c-3.9,7.1-3.9,24.8,0,31.9c3.5,8,14.5,7.7,18.2,0c2.2-4,3.3-9.3,3.3-16C658.5,40.5,646.4,23.4,635.6,39z M659.5,17.3
	c1.1-11.5-10-1.8-14.3,0.1c-10.4,6.8-16.5-5-13.1-14.1h3.8c-1.1,11.5,10,1.8,14.3-0.1c10.3-6.8,16.5,5.1,13.1,14.1H659.5z
	 M698.7,74.8c-24.5-28.1,12.8-64.7,40.2-39.6C763.6,63.2,726.2,99.8,698.7,74.8z M710.2,38.2c-3.9,8.1-3.9,25.6,0,33.7
	c3.5,8.7,13.9,8.7,17.4,0c3.9-8.1,3.9-25.6,0-33.7C724.1,29.4,713.7,29.4,710.2,38.2z M333.9,153c-12.9-18.5,17.9-27.1,21.1-5.5
	c4.2,16.3,4.4,36.2-5.9,49.3c-10.2,13.8-32.2,18.4-44.8,7.7c-12.2-8.3-5.1-49.5-6.9-62c-5.2,1.3-9.1,3.6-11.8,6.9l-3.8-4.4
	c7.6-7.9,23.1-12.5,32.8-6.8c7.8,1.2,2.5,48.2,3.9,52.9c-0.1,6,4.2,9.2,9.9,9.2c19.8-1.3,25.9-29.3,19.2-46
	C343.7,157,337.6,156.9,333.9,153z M387.9,122.1c-10.4-10.2,5.9-26.6,15.9-15.9C414.5,116.2,398.1,132.5,387.9,122.1z M393.2,135.9
	c8.8,0,13.2,3.8,13.2,11.4v45.5c-0.3,9.6,9.8,10.3,16.2,4.1l2.5,3.4c-14.7,14.7-40.7,15.6-39.9-10.4v-47.2
	c-5.2,1.3-9.1,3.6-11.8,6.9l-3.8-4.4C375.5,139.1,384.8,135.8,393.2,135.9z M447.1,149.5c-16.3-27,32.8-24.3,13.9,0.3
	c52.1,33.4,8.3,83-30.8,50.4l3.2-3.4c30.7,18.1,37.4-15.9,20.1-38l-21.3,26.6l-3.5-3.1C435.9,170.8,442,159.9,447.1,149.5z
	 M527.7,144.5v48.3c-0.2,10.3,13,11.7,19.4,5.2c8.7-4.8,3-52,4.5-60h21.1v54.8c-0.3,9.6,9.8,10.3,16.2,4.1l2.5,3.4
	c-11.5,11.1-32,16.4-38.4-0.1c-9.6,10.9-29.4,15-41,4.9c-10.1-8-3.9-51.2-5.5-62.4c-5.2,1.3-9.1,3.6-11.8,6.9l-3.8-4.4
	C498.9,136.2,523.8,129.5,527.7,144.5z M672.8,138v54.8c-0.3,9.6,9.8,10.3,16.2,4.1l2.5,3.4c-12,12-34.2,16.3-39-2.3
	c-8.7,17.4-36.1,15.4-46.2,2.1c-5.6-7-8.4-16-8.4-26.8c0-10.9,3-19.9,9-26.9c9.6-12,35.4-15.9,44.8-0.6v-7.9
	C651.7,138,672.8,138,672.8,138z M623.6,151.8c-5.3,9.6-5.3,33.2,0,42.8c4.8,10.7,19.4,10.4,24.4,0c2.9-5.4,4.4-12.5,4.4-21.4
	C654.3,153.8,638,130.8,623.6,151.8z M688.7,110c7.9-8.9,32.8-15.6,36.8-0.7v83.5c-0.3,9.6,9.8,10.3,16.2,4.1l2.5,3.4
	c-14.7,14.7-40.7,15.6-39.8-10.4v-82.4c-5.2,1.3-9.1,3.6-11.8,6.9C692.5,114.2,688.7,110,688.7,110z"/>
</svg>
