<?xml version="1.0" encoding="utf-8"?>
<svg version="1.1" id="logo_svg_file" xmlns="http://www.w3.org/2000/svg" xmlns:xlink="http://www.w3.org/1999/xlink" x="0px"
	 y="0px" viewBox="0 0 694.6 567.5" enable-background="new 0 0 694.6 567.5" xml:space="preserve">
<path id="aaa" d="M0,267.1V2.4h81.2c13.5,0,23.8,3.1,30.7,9.3c6.9,6.1,11.5,14.7,13.8,25.9c2.4,11,3.6,24,3.6,39
	c0,14.4-1.9,26-5.6,34.6c-3.6,8.6-10.5,14.6-20.6,17.9c8.3,1.7,14.1,5.9,17.4,12.5c3.4,6.5,5.1,15,5.1,25.4v100.1h-52V163.5
	c0-7.7-1.6-12.5-4.8-14.3c-3.1-1.9-8.2-2.9-15.2-2.9v120.8H0z M53.9,100.5h12.8c7.3,0,11-8,11-23.9c0-10.3-0.8-17.1-2.4-20.3
	s-4.6-4.8-9-4.8H53.9C53.9,51.5,53.9,100.5,53.9,100.5z"/>
<path d="M146.8,267.1V2.4h105.9v51.1h-52v51.6h49.9v49.8h-49.9v60.6h55.5v51.6H146.8z"/>
<path d="M273.7,267.1V2.4h69.9c14.6,0,26.2,3.3,34.7,9.8c8.6,6.5,14.8,15.8,18.5,27.8s5.6,26.4,5.6,43c0,16-1.6,30-4.7,42
	c-3.1,11.8-8.7,21-16.7,27.5c-7.9,6.5-19.2,9.8-33.8,9.8h-21.5v104.8H273.7z M325.8,114.8h3c9.8,0,15.8-2.8,18-8.3
	s3.3-13.6,3.3-24.4c0-10-1.1-17.7-3.3-23.2c-2.1-5.5-7.2-8.3-15.2-8.3h-5.9v64.2L325.8,114.8z"/>
<path d="M419.3,267.1V2.4h81.2c13.5,0,23.8,3.1,30.7,9.3c6.9,6.1,11.5,14.7,13.8,25.9c2.4,11,3.6,24,3.6,39c0,14.4-1.9,26-5.6,34.6
	c-3.6,8.6-10.5,14.6-20.6,17.9c8.3,1.7,14.1,5.9,17.4,12.5c3.4,6.5,5.1,15,5.1,25.4v100.1h-52.2V163.5c0-7.7-1.6-12.5-4.8-14.3
	c-3.1-1.9-8.2-2.9-15.2-2.9v120.8H419.3z M473.2,100.5H486c7.3,0,11-8,11-23.9c0-10.3-0.8-17.1-2.4-20.3s-4.6-4.8-9-4.8h-12.3v49
	H473.2z"/>
<path d="M629.3,269.5c-21.2,0-37.3-6.4-48.6-19.1c-11.1-12.8-16.7-31.3-16.7-55.5V69.2c0-22.7,5.5-39.9,16.5-51.6
	C591.7,5.9,607.9,0,629.3,0s37.5,5.9,48.6,17.6s16.7,28.9,16.7,51.6v125.7c0,24.2-5.6,42.7-16.8,55.5
	C666.6,263.1,650.4,269.5,629.3,269.5z M629.7,220.8c8,0,12-7.8,12-23.3V68.3c0-13-3.9-19.6-11.7-19.6c-8.8,0-13.2,6.7-13.2,20v129
	c0,8.2,1,14.1,3,17.7S625.1,220.8,629.7,220.8z"/>
<path d="M0,565.1V300.4h72.8c19,0,33.4,5.3,43,15.9c9.6,10.5,14.4,26,14.4,46.3v123.9c0,25.1-4.4,44.4-13.2,58.1
	c-8.7,13.6-24.1,20.5-46,20.5H0z M53.2,518.3h9.2c9.7,0,14.6-4.7,14.6-14.1V367.6c0-8.8-1.2-14.5-3.6-17c-2.3-2.6-7.1-3.9-14.3-3.9
	h-5.9V518.3L53.2,518.3z"/>
<path d="M213.1,567.5c-22.1,0-38.3-6.2-48.7-18.5c-10.4-12.4-15.6-30.7-15.6-54.7V300.4h51.4v191.7c0,4.4,0.2,8.7,0.8,12.8
	c0.5,4,1.7,7.3,3.5,9.9s4.7,3.9,8.7,3.9c4.1,0,7.1-1.3,8.9-3.8c1.8-2.6,2.9-6,3.3-10.1c0.5-4.1,0.8-8.4,0.8-12.8V300.4h51.4v193.9
	c0,24.1-5.2,42.3-15.6,54.7C251.4,561.3,235.2,567.5,213.1,567.5L213.1,567.5z"/>
<path d="M290.9,565.1V517l60.6-167.9h-54.7v-48.7h110.5v46.3l-61.7,169.6h59.1v48.8H290.9z"/>
</svg>
