<svg xmlns="http://www.w3.org/2000/svg" xmlns:xlink="http://www.w3.org/1999/xlink" viewBox="0 0 1124 271" id="logo_svg_file">
  <path id="aaa" d="M.7 268V3.3h81.2c13.5 0 23.8 3.1 30.7 9.3 6.9 6.1 11.5 14.7 13.8 25.9 2.4 11 3.6 24 3.6 39 0 14.4-1.9 26-5.6 34.6-3.6 8.6-10.5 14.6-20.6 17.9 8.3 1.7 14.1 5.9 17.4 12.5 3.4 6.5 5.1 15 5.1 25.4V268h-52V164.4c0-7.7-1.6-12.5-4.8-14.3-3.1-1.9-8.2-2.9-15.2-2.9V268H.7zm53.9-166.6h12.8c7.3 0 11-8 11-23.9 0-10.3-.8-17.1-2.4-20.3s-4.6-4.8-9-4.8H54.6v49z"/>
  <path d="M147.5,268V3.3h105.9v51.1h-52V106h49.9v49.8h-49.9v60.6h55.5V268H147.5z"/>
  <path d="M274.4 268V3.3h69.9c14.6 0 26.2 3.3 34.7 9.8 8.6 6.5 14.8 15.8 18.5 27.8s5.6 26.4 5.6 43c0 16-1.6 30-4.7 42-3.1 11.8-8.7 21-16.7 27.5-7.9 6.5-19.2 9.8-33.8 9.8h-21.5V268h-52zm52.1-152.3h3c9.8 0 15.8-2.8 18-8.3s3.3-13.6 3.3-24.4c0-10-1.1-17.7-3.3-23.2-2.1-5.5-7.2-8.3-15.2-8.3h-5.9v64.2z"/>
  <path d="M420 268V3.3h81.2c13.5 0 23.8 3.1 30.7 9.3 6.9 6.1 11.5 14.7 13.8 25.9 2.4 11 3.6 24 3.6 39 0 14.4-1.9 26-5.6 34.6-3.6 8.6-10.5 14.6-20.6 17.9 8.3 1.7 14.1 5.9 17.4 12.5 3.4 6.5 5.1 15 5.1 25.4V268h-52.2V164.4c0-7.7-1.6-12.5-4.8-14.3-3.1-1.9-8.2-2.9-15.2-2.9V268H420zm53.9-166.6h12.8c7.3 0 11-8 11-23.9 0-10.3-.8-17.1-2.4-20.3s-4.6-4.8-9-4.8H474v49z"/>
  <path d="M630 270.4c-21.2 0-37.3-6.4-48.6-19.1-11.1-12.8-16.7-31.3-16.7-55.5V70.1c0-22.7 5.5-39.9 16.5-51.6C592.4 6.8 608.6.9 630 .9s37.5 5.9 48.6 17.6 16.7 28.9 16.7 51.6v125.7c0 24.2-5.6 42.7-16.8 55.5-11.2 12.7-27.4 19.1-48.5 19.1zm.4-48.7c8 0 12-7.8 12-23.3V69.2c0-13-3.9-19.6-11.7-19.6-8.8 0-13.2 6.7-13.2 20v129c0 8.2 1 14.1 3 17.7s5.3 5.4 9.9 5.4z"/>
  <path d="M716.6 268V3.3h72.8c19 0 33.4 5.3 43 15.9 9.6 10.5 14.4 26 14.4 46.3v123.9c0 25.1-4.4 44.4-13.2 58.1-8.7 13.6-24.1 20.5-46 20.5h-71zm53.2-46.8h9.2c9.7 0 14.6-4.7 14.6-14.1V70.5c0-8.8-1.2-14.5-3.6-17-2.3-2.6-7.1-3.9-14.3-3.9h-5.9v171.6z"/>
  <path d="M929.7 270.4c-22.1 0-38.3-6.2-48.7-18.5-10.4-12.4-15.6-30.7-15.6-54.7V3.3h51.4V195c0 4.4.2 8.7.8 12.8.5 4 1.7 7.3 3.5 9.9s4.7 3.9 8.7 3.9c4.1 0 7.1-1.3 8.9-3.8 1.8-2.6 2.9-6 3.3-10.1.5-4.1.8-8.4.8-12.8V3.3h51.4v193.9c0 24.1-5.2 42.3-15.6 54.7-10.6 12.3-26.8 18.5-48.9 18.5z"/>
  <path d="M1007.5,268v-48.1L1068.1,52h-54.7V3.3h110.5v46.3l-61.7,169.6h59.1V268H1007.5z"/>
</svg>