<?xml version="1.0" encoding="UTF-8"?>
<svg id="Layer_1" xmlns="http://www.w3.org/2000/svg" version="1.1" viewBox="0 0 970.29 140.54">
  <!-- Generator: Adobe Illustrator 29.1.0, SVG Export Plug-In . SVG Version: 2.1.0 Build 142)  -->
  <defs>
    <style>
      .st0 {
        fill: #a0fe38;
        fill-rule: evenodd;
      }
    </style>
  </defs>
  <path class="st0" d="M969.19,48.86c-.73,2.54-1.79,4.65-3.18,6.35-1.39,1.7-3.07,2.97-5.03,3.82-1.96.85-4.17,1.27-6.63,1.27s-4.54-.42-6.5-1.27c-1.96-.85-3.65-2.12-5.06-3.82-1.42-1.7-2.51-3.81-3.28-6.35-.77-2.53-1.16-5.48-1.16-8.83v-8.26c0-3.35.38-6.3,1.14-8.83.76-2.53,1.85-4.65,3.27-6.35,1.41-1.7,3.1-2.98,5.06-3.84,1.96-.86,4.12-1.29,6.5-1.29s4.67.43,6.64,1.29c1.97.86,3.65,2.14,5.03,3.84,1.38,1.7,2.44,3.82,3.18,6.35.74,2.54,1.11,5.48,1.11,8.83v8.26c0,3.35-.36,6.3-1.09,8.83ZM964.35,31.7c0-2.61-.22-4.86-.65-6.74-.43-1.88-1.08-3.42-1.93-4.62-.85-1.2-1.89-2.08-3.13-2.66-1.24-.58-2.68-.86-4.31-.86-1.54,0-2.93.29-4.16.86-1.23.58-2.28,1.46-3.15,2.66-.87,1.2-1.54,2.74-2.01,4.62s-.7,4.13-.7,6.74v8.33c0,2.63.23,4.89.7,6.77.47,1.88,1.14,3.43,2.02,4.64.88,1.21,1.94,2.1,3.18,2.68,1.24.58,2.62.86,4.15.86,1.63,0,3.07-.29,4.33-.86,1.25-.58,2.3-1.47,3.13-2.68s1.47-2.75,1.89-4.64c.42-1.88.64-4.14.64-6.77v-8.33ZM923.36,47.21h-16.04l-3.73,12.44h-6.14l15.31-47.54h5.16l15.31,47.54h-6.14l-3.73-12.44ZM915.34,20.46l-6.47,21.59h12.95l-6.48-21.59ZM922.28,7.31c-.93.65-1.95.98-3.09.98-.91,0-1.68-.16-2.29-.47-.61-.32-1.15-.67-1.62-1.08-.47-.4-.96-.76-1.47-1.08-.51-.32-1.15-.47-1.91-.47s-1.36.35-1.86,1.05c-.5.7-.75,1.56-.75,2.58l-3.75-.2c0-1.59.27-2.99.8-4.2.53-1.21,1.26-2.16,2.19-2.84.93-.69,1.95-1.03,3.09-1.03.76,0,1.44.16,2.03.47.59.31,1.14.67,1.66,1.08.52.4,1.07.76,1.65,1.08.58.32,1.22.47,1.94.47s1.37-.35,1.88-1.06.77-1.57.77-2.6l3.76.36c0,1.59-.27,2.98-.82,4.18-.54,1.2-1.28,2.12-2.2,2.78ZM868.74,46.1c.34,1.81.88,3.39,1.63,4.75.75,1.36,1.74,2.42,2.95,3.18,1.22.76,2.7,1.14,4.44,1.14,2.2,0,3.94-.36,5.22-1.08,1.28-1.62,2.24-1.86,2.86-3.43.62-1.57,1.03-3.61,1.22-6.14h6.01c-.15,3.26-.81,6.08-1.97,8.44-1.17,2.36-2.85,4.17-5.06,5.44-1.79,1.02-3.95,1.62-6.46,1.82l-.28,1.48c1.02.22,1.95.74,2.79,1.57.84.83,1.26,2.19,1.26,4.08,0,1.02-.17,1.95-.52,2.79-.35.84-.88,1.56-1.58,2.15-.71.6-1.58,1.06-2.63,1.39-1.04.33-2.26.49-3.66.49l-.2-3.49c.83,0,1.55-.11,2.17-.33.62-.22,1.11-.57,1.47-1.04.36-.48.54-1.1.54-1.86,0-.72-.15-1.28-.44-1.7-.29-.41-.75-.72-1.37-.93-.62-.21-1.44-.35-2.46-.44l.88-4.23c-1.51-.21-2.91-.62-4.21-1.25-1.91-.94-3.55-2.28-4.91-4.03-1.36-1.75-2.4-3.86-3.12-6.32-.72-2.46-1.08-5.22-1.08-8.29v-8.78c0-3.05.36-5.8,1.09-8.26.73-2.46,1.78-4.57,3.17-6.32,1.38-1.75,3.07-3.1,5.06-4.03,1.99-.94,4.25-1.4,6.77-1.4,3.09,0,5.71.61,7.85,1.84,2.14,1.23,3.8,3.03,4.96,5.39,1.16,2.36,1.81,5.25,1.94,8.67h-6.01c-.15-2.5-.54-4.54-1.17-6.12-.63-1.58-1.56-2.74-2.79-3.49-1.23-.75-2.82-1.13-4.78-1.13-1.74,0-3.25.35-4.52,1.05-1.27.7-2.32,1.69-3.13,2.99-.82,1.3-1.43,2.85-1.83,4.67-.4,1.82-.6,3.85-.6,6.09v8.85c0,2.09.17,4.04.51,5.84ZM847.26,47.21h-16.05l-3.73,12.44h-6.14l15.31-47.54h5.16l15.31,47.54h-6.14l-3.73-12.44ZM839.24,20.46l-6.48,21.59h12.95l-6.48-21.59ZM792.63,46.1c.34,1.81.88,3.39,1.63,4.75.75,1.36,1.74,2.42,2.96,3.18s2.7,1.14,4.44,1.14c2.2,0,3.94-.36,5.22-1.08,1.28-1.62,2.24-1.86,2.86-3.43.62-1.57,1.03-3.61,1.22-6.14h6.01c-.15,3.26-.81,6.08-1.98,8.44-1.16,2.36-2.85,4.17-5.06,5.44s-4.97,1.89-8.28,1.89c-2.37,0-4.52-.47-6.43-1.4-1.91-.94-3.55-2.28-4.91-4.03-1.36-1.75-2.4-3.86-3.12-6.32-.72-2.46-1.08-5.22-1.08-8.29v-8.78c0-3.05.36-5.8,1.09-8.26.73-2.46,1.79-4.57,3.17-6.32,1.38-1.75,3.07-3.1,5.06-4.03,1.99-.94,4.25-1.4,6.77-1.4,3.09,0,5.71.61,7.85,1.84,2.14,1.23,3.8,3.03,4.96,5.39,1.16,2.36,1.81,5.25,1.94,8.67h-6.01c-.15-2.5-.54-4.54-1.17-6.12-.63-1.58-1.56-2.74-2.79-3.49-1.23-.75-2.82-1.13-4.78-1.13-1.74,0-3.25.35-4.52,1.05-1.27.7-2.32,1.69-3.13,2.99s-1.43,2.85-1.83,4.67c-.4,1.82-.6,3.85-.6,6.09v8.85c0,2.09.17,4.04.51,5.84ZM770.71,12.11h6.01v47.54h-6.01V12.11ZM735.03,22.98v36.66h-6.01V12.11h6.01l19.13,36.76V12.11h5.94v47.54h-6.04l-19.03-36.66ZM733.13,134.76h18.64v5.13h-24.65v-47.54h6.01v42.41ZM710.76,127.45h-16.05l-3.73,12.44h-6.14l15.31-47.54h5.16l15.31,47.54h-6.14l-3.73-12.44ZM702.74,100.7l-6.47,21.59h12.95l-6.48-21.59ZM712.38,58.85c-2.23.97-4.63,1.45-7.2,1.45-2.74,0-5.21-.48-7.41-1.45-2.2-.97-3.95-2.53-5.24-4.69-1.29-2.15-1.94-5.02-1.94-8.59V12.11h5.98v33.46c0,2.48.35,4.42,1.06,5.81.71,1.39,1.71,2.37,3,2.94,1.3.57,2.81.85,4.55.85s3.29-.28,4.59-.85c1.29-.57,2.3-1.54,3-2.94.71-1.39,1.06-3.33,1.06-5.81V12.11h6.01v33.46c0,3.57-.69,6.43-2.06,8.59-1.37,2.15-3.17,3.72-5.4,4.69ZM675.21,41.1l.56-18.41-12.41,36.95h-4.57l-12.41-37.04.56,18.49v18.54h-5.97V12.11h7.71l12.44,38.75,12.41-38.75h7.67v47.54h-5.97v-18.54ZM643.87,106.06h-6.01c0-1.78-.29-3.37-.86-4.75-.58-1.38-1.47-2.47-2.68-3.26-1.21-.79-2.78-1.19-4.72-1.19-1.74,0-3.17.34-4.29,1.01-1.12.68-1.95,1.59-2.48,2.74-.53,1.15-.8,2.47-.8,3.95,0,1,.17,1.91.52,2.73.35.82.89,1.57,1.62,2.27.73.7,1.64,1.34,2.74,1.93,1.1.59,2.4,1.15,3.9,1.7,2.33.76,4.32,1.61,5.98,2.55,1.65.94,3,1.99,4.05,3.15,1.04,1.16,1.81,2.48,2.3,3.95.49,1.47.73,3.13.73,4.98s-.32,3.69-.96,5.26c-.64,1.57-1.57,2.91-2.79,4.02-1.22,1.11-2.69,1.96-4.41,2.56-1.72.6-3.66.9-5.81.9-1.87,0-3.71-.31-5.5-.91-1.8-.61-3.42-1.52-4.88-2.74-1.46-1.22-2.62-2.73-3.49-4.52-.87-1.79-1.31-3.88-1.31-6.25h6.01c0,1.63.24,3.03.72,4.19.48,1.17,1.14,2.13,1.99,2.89.85.76,1.82,1.32,2.92,1.68,1.1.36,2.28.54,3.54.54,1.74,0,3.2-.3,4.39-.91,1.19-.61,2.08-1.48,2.68-2.61s.9-2.47.9-4.02c0-1.11-.13-2.09-.39-2.96-.26-.86-.72-1.64-1.37-2.33-.65-.7-1.57-1.36-2.74-1.99-1.18-.63-2.67-1.27-4.47-1.93-1.96-.7-3.73-1.47-5.32-2.33s-2.94-1.85-4.07-2.95c-1.12-1.11-1.99-2.38-2.59-3.82-.61-1.44-.91-3.08-.91-4.93s.32-3.56.96-5.13c.64-1.57,1.56-2.93,2.74-4.1,1.19-1.16,2.62-2.07,4.29-2.73,1.67-.65,3.55-.98,5.61-.98,3.09,0,5.7.68,7.82,2.04,2.12,1.36,3.73,3.13,4.82,5.32,1.09,2.19,1.63,4.52,1.63,7ZM627.42,55.21c-1.39,1.7-3.07,2.97-5.03,3.82-1.96.85-4.17,1.27-6.63,1.27s-4.54-.42-6.5-1.27c-1.96-.85-3.65-2.12-5.06-3.82-1.42-1.7-2.51-3.81-3.28-6.35-.77-2.53-1.16-5.48-1.16-8.83v-8.26c0-3.35.38-6.3,1.14-8.83.76-2.53,1.85-4.65,3.27-6.35,1.41-1.7,3.1-2.98,5.06-3.84,1.96-.86,4.12-1.29,6.5-1.29s4.67.43,6.64,1.29c1.97.86,3.65,2.14,5.03,3.84,1.38,1.7,2.44,3.82,3.18,6.35.74,2.54,1.11,5.48,1.11,8.83v8.26c0,3.35-.36,6.3-1.09,8.83-.73,2.54-1.79,4.65-3.18,6.35ZM625.75,31.7c0-2.61-.22-4.86-.65-6.74-.44-1.88-1.08-3.42-1.93-4.62-.85-1.2-1.89-2.08-3.13-2.66-1.24-.58-2.68-.86-4.31-.86-1.55,0-2.93.29-4.16.86-1.23.58-2.28,1.46-3.15,2.66-.87,1.2-1.54,2.74-2.01,4.62-.47,1.88-.7,4.13-.7,6.74v8.33c0,2.63.23,4.89.7,6.77.47,1.88,1.14,3.43,2.02,4.64.88,1.21,1.94,2.1,3.18,2.68,1.24.58,2.62.86,4.15.86,1.63,0,3.07-.29,4.33-.86,1.25-.58,2.3-1.47,3.13-2.68s1.47-2.75,1.89-4.64c.42-1.88.64-4.14.64-6.77v-8.33ZM578.51,139.89h-4.6l-14.76-47.54h6.53l10.79,38.41,10.89-38.41h6.53l-14.76,47.54h-.62ZM568.34,46.1c.34,1.81.88,3.39,1.63,4.75.75,1.36,1.73,2.42,2.95,3.18,1.22.76,2.7,1.14,4.44,1.14,2.2,0,3.94-.36,5.22-1.08,1.28-1.62,2.24-1.86,2.86-3.43.62-1.57,1.03-3.61,1.22-6.14h6.01c-.15,3.26-.81,6.08-1.97,8.44-1.17,2.36-2.85,4.17-5.06,5.44-2.21,1.26-4.97,1.89-8.28,1.89-2.37,0-4.52-.47-6.43-1.4-1.91-.94-3.55-2.28-4.91-4.03-1.36-1.75-2.4-3.86-3.12-6.32-.72-2.46-1.08-5.22-1.08-8.29v-8.78c0-3.05.36-5.8,1.09-8.26.73-2.46,1.78-4.57,3.17-6.32,1.38-1.75,3.07-3.1,5.06-4.03,1.99-.94,4.25-1.4,6.77-1.4,3.09,0,5.71.61,7.85,1.84,2.14,1.23,3.8,3.03,4.96,5.39,1.16,2.36,1.81,5.25,1.94,8.67h-6.01c-.15-2.5-.54-4.54-1.18-6.12-.63-1.58-1.56-2.74-2.79-3.49-1.23-.75-2.82-1.13-4.78-1.13-1.74,0-3.25.35-4.52,1.05-1.27.7-2.32,1.69-3.13,2.99-.82,1.3-1.43,2.85-1.83,4.67-.4,1.82-.6,3.85-.6,6.09v8.85c0,2.09.17,4.04.51,5.84ZM540.16,116.12v23.49h-54.89v-23.2l29.22-80.93h-26.39V11.99h53.3v22.34l-29.73,81.8h28.5ZM447.78,140.78c-10.64,0-18.47-2.98-23.49-8.96-5.03-5.97-7.54-14.76-7.54-26.36V11.99h24.8v92.46c0,2.13.12,4.17.36,6.13.24,1.96.8,3.57,1.67,4.82.87,1.26,2.27,1.89,4.21,1.89s3.41-.62,4.28-1.85c.87-1.23,1.41-2.84,1.63-4.82.22-1.98.33-4.04.33-6.16V11.99h24.8v93.47c0,11.6-2.51,20.39-7.54,26.36-5.03,5.97-12.86,8.96-23.49,8.96ZM379.25,139.62h-34.23V11.99h35.1c9.18,0,16.1,2.55,20.74,7.65,4.64,5.1,6.96,12.56,6.96,22.37v59.75c0,12.09-2.12,21.42-6.35,27.99-4.23,6.57-11.64,9.86-22.23,9.86ZM382.15,44.41c0-4.25-.57-7-1.7-8.23-1.14-1.23-3.44-1.85-6.92-1.85h-2.83v82.74h4.42c4.69,0,7.03-2.27,7.03-6.82V44.41ZM303.26,140.78c-10.2,0-18-3.08-23.39-9.24-5.39-6.16-8.08-15.07-8.08-26.72v-60.62c0-10.92,2.67-19.22,8.01-24.87,5.34-5.66,13.16-8.48,23.46-8.48s18.12,2.83,23.46,8.48c5.34,5.66,8.01,13.95,8.01,24.87v60.62c0,11.65-2.69,20.56-8.08,26.72-5.39,6.16-13.19,9.24-23.39,9.24ZM309.27,43.75c0-6.28-1.89-9.43-5.66-9.43-4.25,0-6.38,3.21-6.38,9.64v62.22c0,3.97.48,6.81,1.45,8.52.97,1.72,2.56,2.57,4.79,2.57,3.87,0,5.8-3.75,5.8-11.24v-62.29ZM251.77,73.05c4.01.82,6.83,2.82,8.45,5.98,1.62,3.17,2.43,7.26,2.43,12.29v48.29h-25.16v-49.96c0-3.72-.76-6.03-2.28-6.93-1.52-.89-3.98-1.34-7.36-1.34v58.23h-25.82V11.99h39.16c6.53,0,11.46,1.49,14.79,4.46,3.34,2.97,5.57,7.13,6.71,12.47,1.14,5.34,1.7,11.61,1.7,18.82s-.88,12.52-2.65,16.68c-1.77,4.16-5.09,7.03-9.97,8.63ZM238.28,37.95c-.77-1.55-2.22-2.32-4.35-2.32h-5.95v23.64h6.16c3.53,0,5.29-3.84,5.29-11.53,0-4.98-.39-8.24-1.16-9.79ZM183.72,84.36c-3.84,3.14-9.29,4.71-16.35,4.71h-10.37v50.54h-25.09V11.99h33.72c7.06,0,12.65,1.57,16.79,4.71,4.13,3.14,7.09,7.61,8.88,13.42,1.79,5.8,2.68,12.72,2.68,20.74s-.75,14.47-2.25,20.2c-1.5,5.73-4.17,10.16-8.01,13.31ZM167.18,39.22c-1.04-2.63-3.49-3.95-7.36-3.95h-2.83v30.89h1.45c4.74,0,7.64-1.33,8.7-3.99,1.06-2.66,1.6-6.57,1.6-11.75,0-4.83-.52-8.57-1.56-11.2ZM70.77,11.99h51.05v24.66h-25.09v24.87h24.07v24h-24.07v29.22h26.76v24.87h-52.72V11.99ZM49.74,73.05c4.01.82,6.83,2.82,8.45,5.98,1.62,3.17,2.43,7.26,2.43,12.29v48.29h-25.16v-49.96c0-3.72-.76-6.03-2.28-6.93-1.52-.89-3.98-1.34-7.36-1.34v58.23H0V11.99h39.16c6.53,0,11.46,1.49,14.79,4.46s5.57,7.13,6.71,12.47c1.13,5.34,1.7,11.61,1.7,18.82s-.88,12.52-2.65,16.68c-1.76,4.16-5.09,7.03-9.97,8.63ZM36.26,37.95c-.77-1.55-2.22-2.32-4.35-2.32h-5.95v23.64h6.16c3.53,0,5.29-3.84,5.29-11.53,0-4.98-.39-8.24-1.16-9.79ZM606.62,139.89h-6.01v-47.54h6.01v47.54ZM656.83,125.81c0,2.48.35,4.42,1.06,5.81.71,1.39,1.71,2.37,3,2.94s2.81.85,4.55.85,3.29-.28,4.59-.85c1.3-.57,2.3-1.54,3-2.94.71-1.39,1.06-3.33,1.06-5.81v-33.46h6.01v33.46c0,3.57-.69,6.43-2.06,8.59-1.37,2.15-3.17,3.72-5.4,4.68-2.23.97-4.63,1.45-7.2,1.45-2.74,0-5.21-.49-7.41-1.45-2.2-.97-3.95-2.53-5.24-4.68-1.3-2.15-1.94-5.02-1.94-8.59v-33.46h5.97v33.46Z"/>
</svg>